<svg width="276" height="129" viewBox="0 0 276 129" fill="none" xmlns="http://www.w3.org/2000/svg">
<g filter="url(#filter0_d_17733_140588)">
<rect x="13.9702" y="21.5444" width="248" height="86" rx="10.099" fill="white" shape-rendering="crispEdges"/>
<rect x="14.391" y="21.9652" width="247.158" height="85.1584" rx="9.67822" stroke="#A66DFF" stroke-width="0.841584" shape-rendering="crispEdges"/>
<path d="M25.0119 48.0098V38.3147H32.7208V48.0098H31.3137V39.6411H26.419V48.0098H25.0119ZM38.0247 48.2117C37.329 48.2117 36.7455 48.0434 36.2742 47.7068C35.8029 47.3657 35.4461 46.9056 35.2037 46.3266C34.9613 45.7476 34.8401 45.0945 34.8401 44.3674C34.8401 43.6403 34.9591 42.9872 35.197 42.4082C35.4393 41.8292 35.7939 41.3736 36.2607 41.0414C36.732 40.7048 37.311 40.5365 37.9978 40.5365C38.68 40.5365 39.268 40.7048 39.7617 41.0414C40.2599 41.3736 40.6437 41.8292 40.913 42.4082C41.1823 42.9827 41.317 43.6358 41.317 44.3674C41.317 45.0945 41.1823 45.7498 40.913 46.3333C40.6482 46.9123 40.2689 47.3702 39.7752 47.7068C39.2859 48.0434 38.7025 48.2117 38.0247 48.2117ZM34.6045 51.2414V40.7385H35.8568V45.9698H36.0184V51.2414H34.6045ZM37.8294 46.9393C38.2783 46.9393 38.6486 46.8248 38.9403 46.5959C39.2366 46.367 39.4565 46.0595 39.6001 45.6735C39.7483 45.283 39.8223 44.8477 39.8223 44.3674C39.8223 43.8916 39.7483 43.4607 39.6001 43.0747C39.4565 42.6887 39.2343 42.3813 38.9336 42.1523C38.6329 41.9234 38.2491 41.809 37.7823 41.809C37.3425 41.809 36.9789 41.9167 36.6916 42.1321C36.4089 42.3476 36.1979 42.6483 36.0588 43.0343C35.9241 43.4203 35.8568 43.8647 35.8568 44.3674C35.8568 44.8701 35.9241 45.3145 36.0588 45.7005C36.1934 46.0865 36.4066 46.3894 36.6984 46.6094C36.9901 46.8293 37.3671 46.9393 37.8294 46.9393ZM45.9611 48.2117C45.234 48.2117 44.6034 48.0479 44.0693 47.7203C43.5351 47.3926 43.1222 46.9415 42.8305 46.367C42.5432 45.788 42.3996 45.1214 42.3996 44.3674C42.3996 43.6088 42.5477 42.9423 42.8439 42.3678C43.1402 41.7888 43.5553 41.3399 44.0895 41.0213C44.6236 40.6981 45.2475 40.5365 45.9611 40.5365C46.6883 40.5365 47.3189 40.7003 47.853 41.028C48.3872 41.3556 48.8001 41.8067 49.0918 42.3813C49.3836 42.9558 49.5295 43.6178 49.5295 44.3674C49.5295 45.1259 49.3813 45.7947 49.0851 46.3737C48.7934 46.9482 48.3804 47.3993 47.8463 47.727C47.3122 48.0502 46.6838 48.2117 45.9611 48.2117ZM45.9611 46.8854C46.6569 46.8854 47.1753 46.652 47.5164 46.1852C47.862 45.7139 48.0348 45.108 48.0348 44.3674C48.0348 43.6088 47.8598 43.0029 47.5097 42.5496C47.1641 42.0917 46.6479 41.8628 45.9611 41.8628C45.4899 41.8628 45.1016 41.9706 44.7964 42.186C44.4912 42.397 44.2645 42.691 44.1164 43.068C43.9683 43.4405 43.8942 43.8737 43.8942 44.3674C43.8942 45.1304 44.0693 45.7409 44.4194 46.1987C44.7695 46.6565 45.2834 46.8854 45.9611 46.8854ZM54.1195 48.2117C53.3744 48.2117 52.7415 48.0457 52.2209 47.7135C51.7002 47.3814 51.3007 46.9258 51.0224 46.3468C50.7486 45.7678 50.6095 45.1102 50.605 44.3741C50.6095 43.6246 50.7531 42.9625 51.0359 42.388C51.3187 41.809 51.7226 41.3556 52.2478 41.028C52.7729 40.7003 53.4036 40.5365 54.1397 40.5365C54.9341 40.5365 55.6119 40.734 56.1729 41.129C56.7385 41.524 57.111 42.0648 57.2906 42.7515L55.8902 43.1555C55.751 42.7471 55.5221 42.4306 55.2034 42.2062C54.8892 41.9773 54.5279 41.8628 54.1195 41.8628C53.6572 41.8628 53.2779 41.9728 52.9816 42.1927C52.6854 42.4082 52.4655 42.7044 52.3218 43.0814C52.1782 43.4585 52.1042 43.8894 52.0997 44.3741C52.1042 45.1237 52.2747 45.7296 52.6113 46.1919C52.9525 46.6543 53.4552 46.8854 54.1195 46.8854C54.5728 46.8854 54.9386 46.7822 55.2169 46.5757C55.4997 46.3647 55.7151 46.064 55.8632 45.6735L57.2906 46.0102C57.0527 46.7193 56.6599 47.2647 56.1123 47.6462C55.5647 48.0232 54.9005 48.2117 54.1195 48.2117ZM60.4616 48.0098V42.0042H57.9773V40.7385H64.3531V42.0042H61.8688V48.0098H60.4616ZM68.6576 48.2117C67.9305 48.2117 67.2999 48.0479 66.7657 47.7203C66.2316 47.3926 65.8187 46.9415 65.5269 46.367C65.2397 45.788 65.096 45.1214 65.096 44.3674C65.096 43.6088 65.2442 42.9423 65.5404 42.3678C65.8366 41.7888 66.2518 41.3399 66.7859 41.0213C67.3201 40.6981 67.944 40.5365 68.6576 40.5365C69.3847 40.5365 70.0154 40.7003 70.5495 41.028C71.0836 41.3556 71.4966 41.8067 71.7883 42.3813C72.0801 42.9558 72.2259 43.6178 72.2259 44.3674C72.2259 45.1259 72.0778 45.7947 71.7816 46.3737C71.4898 46.9482 71.0769 47.3993 70.5428 47.727C70.0086 48.0502 69.3803 48.2117 68.6576 48.2117ZM68.6576 46.8854C69.3533 46.8854 69.8717 46.652 70.2129 46.1852C70.5585 45.7139 70.7313 45.108 70.7313 44.3674C70.7313 43.6088 70.5562 43.0029 70.2061 42.5496C69.8605 42.0917 69.3444 41.8628 68.6576 41.8628C68.1863 41.8628 67.7981 41.9706 67.4929 42.186C67.1877 42.397 66.961 42.691 66.8129 43.068C66.6647 43.4405 66.5907 43.8737 66.5907 44.3674C66.5907 45.1304 66.7657 45.7409 67.1158 46.1987C67.4659 46.6565 67.9799 46.8854 68.6576 46.8854ZM76.3944 48.0098L76.4011 40.7385H77.8285V44.2395L80.6831 40.7385H82.474L79.4578 44.3741L82.7837 48.0098H80.8716L77.8285 44.5088V48.0098H76.3944ZM86.876 48.2117C86.1803 48.2117 85.5968 48.0434 85.1255 47.7068C84.6542 47.3657 84.2974 46.9056 84.055 46.3266C83.8127 45.7476 83.6915 45.0945 83.6915 44.3674C83.6915 43.6403 83.8104 42.9872 84.0483 42.4082C84.2907 41.8292 84.6453 41.3736 85.1121 41.0414C85.5834 40.7048 86.1624 40.5365 86.8491 40.5365C87.5313 40.5365 88.1193 40.7048 88.6131 41.0414C89.1113 41.3736 89.495 41.8292 89.7643 42.4082C90.0336 42.9827 90.1683 43.6358 90.1683 44.3674C90.1683 45.0945 90.0336 45.7498 89.7643 46.3333C89.4995 46.9123 89.1202 47.3702 88.6265 47.7068C88.1373 48.0434 87.5538 48.2117 86.876 48.2117ZM83.4558 51.2414V40.7385H84.7081V45.9698H84.8697V51.2414H83.4558ZM86.6808 46.9393C87.1296 46.9393 87.4999 46.8248 87.7917 46.5959C88.0879 46.367 88.3078 46.0595 88.4515 45.6735C88.5996 45.283 88.6736 44.8477 88.6736 44.3674C88.6736 43.8916 88.5996 43.4607 88.4515 43.0747C88.3078 42.6887 88.0857 42.3813 87.7849 42.1523C87.4842 41.9234 87.1004 41.809 86.6336 41.809C86.1938 41.809 85.8302 41.9167 85.543 42.1321C85.2602 42.3476 85.0492 42.6483 84.9101 43.0343C84.7754 43.4203 84.7081 43.8647 84.7081 44.3674C84.7081 44.8701 84.7754 45.3145 84.9101 45.7005C85.0447 46.0865 85.2579 46.3894 85.5497 46.6094C85.8414 46.8293 86.2185 46.9393 86.6808 46.9393ZM93.7083 48.2117C93.1697 48.2117 92.7186 48.113 92.3551 47.9155C91.9915 47.7135 91.7154 47.4487 91.5269 47.1211C91.3429 46.7889 91.2509 46.4253 91.2509 46.0304C91.2509 45.6623 91.316 45.3391 91.4461 45.0609C91.5763 44.7826 91.7693 44.5469 92.0252 44.3539C92.281 44.1564 92.5952 43.9971 92.9677 43.8759C93.2909 43.7816 93.6567 43.6986 94.0652 43.6268C94.4736 43.555 94.9022 43.4877 95.3511 43.4248C95.8044 43.362 96.2533 43.2991 96.6976 43.2363L96.1859 43.5191C96.1949 42.949 96.0737 42.5271 95.8224 42.2533C95.5755 41.975 95.1491 41.8359 94.5432 41.8359C94.1617 41.8359 93.8116 41.9257 93.4929 42.1052C93.1742 42.2803 92.952 42.572 92.8263 42.9805L91.5135 42.5765C91.693 41.9526 92.0341 41.4566 92.5368 41.0886C93.044 40.7205 93.7173 40.5365 94.5566 40.5365C95.2075 40.5365 95.773 40.6487 96.2533 40.8731C96.738 41.0931 97.0926 41.4432 97.317 41.9234C97.4337 42.1613 97.5055 42.4127 97.5325 42.6775C97.5594 42.9423 97.5729 43.2273 97.5729 43.5325V48.0098H96.3273V46.3468L96.5697 46.5622C96.269 47.1188 95.8852 47.534 95.4184 47.8078C94.9561 48.0771 94.3861 48.2117 93.7083 48.2117ZM93.9574 47.0605C94.3569 47.0605 94.7003 46.9909 94.9875 46.8517C95.2748 46.7081 95.5059 46.5263 95.681 46.3064C95.856 46.0865 95.9705 45.8576 96.0244 45.6197C96.1007 45.4042 96.1433 45.1618 96.1523 44.8925C96.1657 44.6232 96.1725 44.4078 96.1725 44.2462L96.6303 44.4145C96.1859 44.4818 95.782 44.5424 95.4184 44.5963C95.0549 44.6502 94.725 44.704 94.4287 44.7579C94.137 44.8073 93.8766 44.8679 93.6477 44.9397C93.4547 45.007 93.2819 45.0878 93.1293 45.182C92.9812 45.2763 92.8622 45.3908 92.7725 45.5254C92.6872 45.6601 92.6446 45.8239 92.6446 46.0169C92.6446 46.2054 92.6917 46.3805 92.7859 46.542C92.8802 46.6991 93.0238 46.8248 93.2168 46.9191C93.4098 47.0133 93.6567 47.0605 93.9574 47.0605ZM102.432 48.2117C101.687 48.2117 101.054 48.0457 100.533 47.7135C100.012 47.3814 99.6129 46.9258 99.3346 46.3468C99.0608 45.7678 98.9217 45.1102 98.9172 44.3741C98.9217 43.6246 99.0653 42.9625 99.3481 42.388C99.6309 41.809 100.035 41.3556 100.56 41.028C101.085 40.7003 101.716 40.5365 102.452 40.5365C103.246 40.5365 103.924 40.734 104.485 41.129C105.051 41.524 105.423 42.0648 105.603 42.7515L104.202 43.1555C104.063 42.7471 103.834 42.4306 103.516 42.2062C103.201 41.9773 102.84 41.8628 102.432 41.8628C101.969 41.8628 101.59 41.9728 101.294 42.1927C100.998 42.4082 100.778 42.7044 100.634 43.0814C100.49 43.4585 100.416 43.8894 100.412 44.3741C100.416 45.1237 100.587 45.7296 100.924 46.1919C101.265 46.6543 101.767 46.8854 102.432 46.8854C102.885 46.8854 103.251 46.7822 103.529 46.5757C103.812 46.3647 104.027 46.064 104.175 45.6735L105.603 46.0102C105.365 46.7193 104.972 47.2647 104.425 47.6462C103.877 48.0232 103.213 48.2117 102.432 48.2117ZM108.936 48.2117C108.397 48.2117 107.946 48.113 107.582 47.9155C107.219 47.7135 106.943 47.4487 106.754 47.1211C106.57 46.7889 106.478 46.4253 106.478 46.0304C106.478 45.6623 106.543 45.3391 106.674 45.0609C106.804 44.7826 106.997 44.5469 107.253 44.3539C107.508 44.1564 107.823 43.9971 108.195 43.8759C108.518 43.7816 108.884 43.6986 109.293 43.6268C109.701 43.555 110.13 43.4877 110.579 43.4248C111.032 43.362 111.481 43.2991 111.925 43.2363L111.413 43.5191C111.422 42.949 111.301 42.5271 111.05 42.2533C110.803 41.975 110.377 41.8359 109.771 41.8359C109.389 41.8359 109.039 41.9257 108.72 42.1052C108.402 42.2803 108.179 42.572 108.054 42.9805L106.741 42.5765C106.92 41.9526 107.262 41.4566 107.764 41.0886C108.271 40.7205 108.945 40.5365 109.784 40.5365C110.435 40.5365 111 40.6487 111.481 40.8731C111.965 41.0931 112.32 41.4432 112.544 41.9234C112.661 42.1613 112.733 42.4127 112.76 42.6775C112.787 42.9423 112.8 43.2273 112.8 43.5325V48.0098H111.555V46.3468L111.797 46.5622C111.496 47.1188 111.113 47.534 110.646 47.8078C110.184 48.0771 109.613 48.2117 108.936 48.2117ZM109.185 47.0605C109.584 47.0605 109.928 46.9909 110.215 46.8517C110.502 46.7081 110.733 46.5263 110.908 46.3064C111.083 46.0865 111.198 45.8576 111.252 45.6197C111.328 45.4042 111.371 45.1618 111.38 44.8925C111.393 44.6232 111.4 44.4078 111.4 44.2462L111.858 44.4145C111.413 44.4818 111.009 44.5424 110.646 44.5963C110.282 44.6502 109.952 44.704 109.656 44.7579C109.364 44.8073 109.104 44.8679 108.875 44.9397C108.682 45.007 108.509 45.0878 108.357 45.182C108.209 45.2763 108.09 45.3908 108 45.5254C107.915 45.6601 107.872 45.8239 107.872 46.0169C107.872 46.2054 107.919 46.3805 108.013 46.542C108.108 46.6991 108.251 46.8248 108.444 46.9191C108.637 47.0133 108.884 47.0605 109.185 47.0605ZM114.542 48.0098V40.7385H117.74C117.951 40.7385 118.162 40.7519 118.373 40.7789C118.584 40.8013 118.77 40.835 118.932 40.8799C119.3 40.9831 119.614 41.1896 119.874 41.4993C120.134 41.8045 120.265 42.2129 120.265 42.7246C120.265 43.0164 120.22 43.2632 120.13 43.4652C120.04 43.6627 119.917 43.8333 119.76 43.9769C119.688 44.0397 119.612 44.0958 119.531 44.1452C119.45 44.1946 119.369 44.2327 119.288 44.2597C119.454 44.2866 119.618 44.3449 119.78 44.4347C120.027 44.5649 120.229 44.7534 120.386 45.0003C120.547 45.2426 120.628 45.568 120.628 45.9765C120.628 46.4657 120.509 46.8764 120.271 47.2086C120.033 47.5362 119.697 47.7607 119.261 47.8818C119.091 47.9312 118.898 47.9649 118.682 47.9828C118.471 48.0008 118.261 48.0098 118.05 48.0098H114.542ZM115.969 46.8989H117.962C118.056 46.8989 118.164 46.8899 118.285 46.8719C118.406 46.854 118.514 46.8293 118.608 46.7979C118.81 46.735 118.954 46.6206 119.039 46.4545C119.129 46.2884 119.174 46.1112 119.174 45.9226C119.174 45.6668 119.107 45.4626 118.972 45.31C118.837 45.1529 118.667 45.0519 118.46 45.007C118.37 44.9756 118.272 44.9576 118.164 44.9531C118.056 44.9486 117.964 44.9464 117.888 44.9464H115.969V46.8989ZM115.969 43.8153H117.545C117.675 43.8153 117.807 43.8086 117.942 43.7951C118.076 43.7772 118.193 43.748 118.292 43.7076C118.467 43.6403 118.597 43.528 118.682 43.371C118.768 43.2094 118.81 43.0343 118.81 42.8458C118.81 42.6393 118.763 42.4553 118.669 42.2937C118.575 42.1321 118.433 42.0199 118.245 41.9571C118.115 41.9122 117.964 41.8875 117.794 41.883C117.628 41.8741 117.522 41.8696 117.477 41.8696H115.969V43.8153ZM126.28 48.0098V45.4783C126.034 45.604 125.744 45.7072 125.412 45.788C125.08 45.8643 124.73 45.9024 124.362 45.9024C123.616 45.9024 123.017 45.7364 122.564 45.4042C122.115 45.0676 121.823 44.5828 121.689 43.95C121.653 43.7614 121.626 43.5684 121.608 43.371C121.59 43.169 121.579 42.9849 121.574 42.8189C121.574 42.6528 121.574 42.5294 121.574 42.4486V40.7385H123.002V42.4486C123.002 42.5653 123.006 42.7201 123.015 42.9131C123.024 43.1016 123.049 43.2857 123.089 43.4652C123.174 43.8692 123.345 44.1699 123.601 44.3674C123.857 44.5604 124.218 44.6569 124.685 44.6569C125.021 44.6569 125.324 44.6143 125.594 44.529C125.867 44.4392 126.096 44.3247 126.28 44.1856V40.7385H127.701V48.0098H126.28ZM135.719 40.7385V48.0098H134.365V42.9535L130.73 48.0098H129.585V40.7385H130.938V45.6937L134.581 40.7385H135.719ZM137.593 48.0098L137.6 40.7385H139.027V44.2395L141.882 40.7385H143.673L140.657 44.3741L143.983 48.0098H142.071L139.027 44.5088V48.0098H137.593ZM145.335 48.0098V46.643H146.742V48.0098H145.335ZM145.335 45.586V38.3147H146.742V45.586H145.335Z" fill="#303030"/>
<path d="M27.6099 69.2361C27.0326 69.2361 26.5318 69.1516 26.1077 68.9827C25.6874 68.8139 25.3418 68.592 25.0708 68.317C24.7998 68.0382 24.5976 67.7378 24.464 67.4157L25.2534 66.9562C25.3477 67.2233 25.4969 67.4668 25.7012 67.6867C25.9054 67.9066 26.1685 68.0814 26.4906 68.211C26.8126 68.3406 27.1955 68.4054 27.6393 68.4054C28.0988 68.4054 28.4877 68.3328 28.8058 68.1874C29.1278 68.0421 29.3713 67.8379 29.5363 67.5748C29.7012 67.3116 29.7837 67.0053 29.7837 66.6558C29.7837 66.2709 29.6914 65.9724 29.5068 65.7603C29.3222 65.5482 29.0748 65.399 28.7645 65.3126C28.4543 65.2223 28.1087 65.1712 27.7277 65.1594C27.441 65.1476 27.2368 65.1398 27.115 65.1359C26.9933 65.1319 26.9128 65.13 26.8735 65.13C26.8342 65.13 26.7969 65.13 26.7616 65.13V64.2934C26.7891 64.2934 26.8617 64.2934 26.9795 64.2934C27.0974 64.2934 27.223 64.2934 27.3566 64.2934C27.4901 64.2895 27.5961 64.2856 27.6747 64.2817C28.2363 64.2542 28.6781 64.1069 29.0002 63.8398C29.3222 63.5728 29.4832 63.2114 29.4832 62.7559C29.4832 62.2728 29.3124 61.8977 28.9707 61.6307C28.633 61.3636 28.1951 61.2301 27.657 61.2301C27.1504 61.2301 26.7223 61.3518 26.3728 61.5953C26.0271 61.8349 25.7444 62.1569 25.5244 62.5615L24.8175 62.0371C25.0846 61.558 25.4616 61.1653 25.9486 60.8589C26.4356 60.5526 27.0129 60.3994 27.6806 60.3994C28.038 60.3994 28.3796 60.4485 28.7056 60.5467C29.0355 60.6449 29.3262 60.7902 29.5775 60.9826C29.8328 61.1751 30.0331 61.4186 30.1784 61.7131C30.3276 62.0038 30.4023 62.3454 30.4023 62.7382C30.4023 63.1977 30.3001 63.5983 30.0959 63.94C29.8956 64.2817 29.6364 64.5389 29.3183 64.7117C29.7503 64.8413 30.0881 65.0691 30.3316 65.3951C30.579 65.721 30.7027 66.1472 30.7027 66.6734C30.7027 67.1919 30.5751 67.6435 30.3198 68.0284C30.0645 68.4133 29.7032 68.7118 29.2358 68.9238C28.7724 69.132 28.2304 69.2361 27.6099 69.2361ZM33.7446 69.2361C33.2655 69.2361 32.8629 69.1497 32.5369 68.9769C32.2149 68.804 31.9734 68.5743 31.8123 68.2876C31.6513 68.0009 31.5708 67.6887 31.5708 67.3509C31.5708 67.0053 31.6395 66.7107 31.777 66.4672C31.9184 66.2198 32.1089 66.0176 32.3484 65.8605C32.5919 65.7034 32.8727 65.5836 33.1909 65.5011C33.5129 65.4226 33.8683 65.3538 34.2571 65.2949C34.6499 65.2321 35.0328 65.1791 35.4059 65.1359C35.7829 65.0887 36.1128 65.0436 36.3956 65.0004L36.0893 65.1889C36.1011 64.5605 35.9793 64.0951 35.724 63.7927C35.4687 63.4903 35.025 63.3391 34.3926 63.3391C33.9567 63.3391 33.5875 63.4373 33.2851 63.6336C32.9866 63.83 32.7765 64.1403 32.6548 64.5644L31.8123 64.317C31.9577 63.7475 32.2502 63.3057 32.6901 62.9915C33.13 62.6773 33.7014 62.5202 34.4044 62.5202C34.9857 62.5202 35.4786 62.6302 35.8831 62.8501C36.2915 63.0661 36.5802 63.3803 36.7491 63.7927C36.8276 63.9773 36.8787 64.1835 36.9022 64.4113C36.9258 64.639 36.9376 64.8708 36.9376 65.1064V69.0593H36.1659V67.4628L36.3897 67.5571C36.1737 68.103 35.8379 68.5193 35.3823 68.806C34.9268 69.0927 34.3809 69.2361 33.7446 69.2361ZM33.8448 68.4879C34.2493 68.4879 34.6028 68.4152 34.9052 68.2699C35.2076 68.1246 35.4511 67.9263 35.6357 67.6749C35.8202 67.4196 35.94 67.1329 35.995 66.8148C36.0421 66.6106 36.0677 66.3867 36.0716 66.1432C36.0755 65.8958 36.0775 65.7112 36.0775 65.5895L36.4074 65.7603C36.1128 65.7996 35.7928 65.8389 35.4471 65.8781C35.1055 65.9174 34.7677 65.9626 34.4339 66.0136C34.104 66.0647 33.8055 66.1256 33.5384 66.1963C33.3578 66.2473 33.183 66.32 33.0141 66.4142C32.8452 66.5046 32.7058 66.6263 32.5959 66.7795C32.4898 66.9326 32.4368 67.1231 32.4368 67.3509C32.4368 67.5355 32.482 67.7142 32.5723 67.887C32.6666 68.0598 32.8158 68.2032 33.02 68.317C33.2282 68.4309 33.5031 68.4879 33.8448 68.4879ZM41.7372 71.887L42.9684 68.5468L42.9861 69.5365L40.1996 62.6969H41.1186L43.4044 68.4172H43.0273L45.1363 62.6969H46.02L42.6032 71.887H41.7372ZM50.9372 69.0593V66.6911C50.7251 66.7971 50.464 66.8894 50.1537 66.968C49.8434 67.0465 49.5096 67.0858 49.1522 67.0858C48.5081 67.0858 47.9858 66.9425 47.5852 66.6558C47.1846 66.3691 46.9234 65.9547 46.8017 65.4127C46.7624 65.2517 46.7349 65.0809 46.7192 64.9002C46.7074 64.7196 46.6996 64.5566 46.6956 64.4113C46.6917 64.2659 46.6897 64.1619 46.6897 64.099V62.6969H47.5616V64.099C47.5616 64.2286 47.5655 64.3759 47.5734 64.5409C47.5813 64.7058 47.5989 64.8668 47.6264 65.0239C47.705 65.452 47.8817 65.776 48.1566 65.996C48.4355 66.2159 48.8262 66.3259 49.3289 66.3259C49.6431 66.3259 49.9397 66.2866 50.2185 66.208C50.5013 66.1256 50.7408 66.0156 50.9372 65.8781V62.6969H51.8032V69.0593H50.9372ZM55.2724 69.2361C54.7933 69.2361 54.3907 69.1497 54.0647 68.9769C53.7427 68.804 53.5012 68.5743 53.3401 68.2876C53.1791 68.0009 53.0986 67.6887 53.0986 67.3509C53.0986 67.0053 53.1673 66.7107 53.3048 66.4672C53.4462 66.2198 53.6366 66.0176 53.8762 65.8605C54.1197 65.7034 54.4005 65.5836 54.7186 65.5011C55.0407 65.4226 55.3961 65.3538 55.7849 65.2949C56.1777 65.2321 56.5606 65.1791 56.9337 65.1359C57.3107 65.0887 57.6406 65.0436 57.9234 65.0004L57.6171 65.1889C57.6288 64.5605 57.5071 64.0951 57.2518 63.7927C56.9965 63.4903 56.5527 63.3391 55.9204 63.3391C55.4845 63.3391 55.1153 63.4373 54.8129 63.6336C54.5144 63.83 54.3043 64.1403 54.1826 64.5644L53.3401 64.317C53.4854 63.7475 53.778 63.3057 54.2179 62.9915C54.6578 62.6773 55.2292 62.5202 55.9322 62.5202C56.5135 62.5202 57.0064 62.6302 57.4109 62.8501C57.8193 63.0661 58.108 63.3803 58.2769 63.7927C58.3554 63.9773 58.4065 64.1835 58.43 64.4113C58.4536 64.639 58.4654 64.8708 58.4654 65.1064V69.0593H57.6936V67.4628L57.9175 67.5571C57.7015 68.103 57.3657 68.5193 56.9101 68.806C56.4546 69.0927 55.9086 69.2361 55.2724 69.2361ZM55.3726 68.4879C55.7771 68.4879 56.1305 68.4152 56.433 68.2699C56.7354 68.1246 56.9789 67.9263 57.1634 67.6749C57.348 67.4196 57.4678 67.1329 57.5228 66.8148C57.5699 66.6106 57.5955 66.3867 57.5994 66.1432C57.6033 65.8958 57.6053 65.7112 57.6053 65.5895L57.9352 65.7603C57.6406 65.7996 57.3205 65.8389 56.9749 65.8781C56.6333 65.9174 56.2955 65.9626 55.9617 66.0136C55.6318 66.0647 55.3333 66.1256 55.0662 66.1963C54.8856 66.2473 54.7108 66.32 54.5419 66.4142C54.373 66.5046 54.2336 66.6263 54.1236 66.7795C54.0176 66.9326 53.9646 67.1231 53.9646 67.3509C53.9646 67.5355 54.0098 67.7142 54.1001 67.887C54.1943 68.0598 54.3436 68.2032 54.5478 68.317C54.756 68.4309 55.0309 68.4879 55.3726 68.4879ZM62.6382 69.2361C61.998 69.2361 61.4561 69.0927 61.0123 68.806C60.5685 68.5193 60.2307 68.1246 59.999 67.6219C59.7712 67.1153 59.6534 66.534 59.6455 65.8781C59.6534 65.2105 59.7751 64.6253 60.0108 64.1226C60.2464 63.616 60.5861 63.2232 61.0299 62.9444C61.4737 62.6616 62.0118 62.5202 62.6441 62.5202C63.2882 62.5202 63.8478 62.6773 64.3231 62.9915C64.8022 63.3057 65.1301 63.7357 65.3069 64.2817L64.4586 64.5526C64.3093 64.1717 64.0717 63.8771 63.7457 63.669C63.4237 63.4569 63.0545 63.3509 62.6382 63.3509C62.1708 63.3509 61.784 63.4589 61.4777 63.6749C61.1713 63.8869 60.9435 64.1835 60.7943 64.5644C60.6451 64.9454 60.5685 65.3833 60.5645 65.8781C60.5724 66.6401 60.7491 67.2527 61.0947 67.7162C61.4403 68.1757 61.9548 68.4054 62.6382 68.4054C63.0702 68.4054 63.4374 68.3072 63.7398 68.1109C64.0462 67.9106 64.2779 67.6199 64.435 67.239L65.3069 67.4982C65.0712 68.0637 64.7256 68.4957 64.27 68.7942C63.8145 69.0888 63.2705 69.2361 62.6382 69.2361ZM68.0994 69.0593V63.4981H65.8431V62.6969H71.2217V63.4981H68.9654V69.0593H68.0994ZM77.3995 62.6969V69.0593H76.5571V64.1049L73.0696 69.0593H72.3391V62.6969H73.1815V67.6101L76.6749 62.6969H77.3995ZM81.7452 69.2361C81.1247 69.2361 80.5866 69.0986 80.1311 68.8237C79.6794 68.5488 79.3279 68.1619 79.0766 67.6631C78.8252 67.1644 78.6995 66.5792 78.6995 65.9076C78.6995 65.2124 78.8232 64.6116 79.0707 64.1049C79.3181 63.5983 79.6657 63.2075 80.1134 62.9326C80.565 62.6577 81.0972 62.5202 81.7099 62.5202C82.3382 62.5202 82.8743 62.6655 83.3181 62.9562C83.7619 63.2429 84.0977 63.6552 84.3255 64.1933C84.5533 64.7313 84.6574 65.3735 84.6377 66.1197H83.7541V65.8133C83.7384 64.9886 83.5597 64.3661 83.218 63.9459C82.8802 63.5256 82.3854 63.3155 81.7334 63.3155C81.0501 63.3155 80.5258 63.5374 80.1605 63.9812C79.7992 64.425 79.6185 65.0573 79.6185 65.8781C79.6185 66.6793 79.7992 67.3018 80.1605 67.7456C80.5258 68.1855 81.0422 68.4054 81.7099 68.4054C82.1654 68.4054 82.5621 68.3013 82.8999 68.0932C83.2416 67.8811 83.5106 67.5767 83.7069 67.1801L84.514 67.4923C84.2627 68.0461 83.8915 68.4761 83.4006 68.7824C82.9136 69.0849 82.3618 69.2361 81.7452 69.2361ZM79.3122 66.1197V65.3951H84.1723V66.1197H79.3122ZM93.3584 62.6969V69.0593H92.516V64.1049L89.0284 69.0593H88.2979V62.6969H89.1404V67.6101L92.6338 62.6969H93.3584ZM97.1562 60.5762H98.0458L95.7836 69.0593H94.894L97.1562 60.5762ZM104.634 62.6969V69.0593H103.792V64.1049L100.304 69.0593H99.5739V62.6969H100.416V67.6101L103.91 62.6969H104.634ZM105.699 69.0593V68.2994C105.934 68.3426 106.113 68.3328 106.235 68.2699C106.36 68.2032 106.453 68.0932 106.512 67.94C106.571 67.7829 106.62 67.5885 106.659 67.3568C106.722 66.9719 106.779 66.5478 106.83 66.0843C106.881 65.6209 106.926 65.1103 106.965 64.5526C107.008 63.991 107.052 63.3725 107.095 62.6969H111.419V69.0593H110.559V63.5276H107.896C107.869 63.9439 107.837 64.3582 107.802 64.7706C107.766 65.183 107.729 65.5797 107.69 65.9606C107.654 66.3376 107.615 66.6852 107.572 67.0033C107.529 67.3215 107.484 67.5964 107.437 67.8281C107.366 68.1776 107.272 68.4565 107.154 68.6646C107.04 68.8728 106.869 69.0102 106.641 69.077C106.413 69.1438 106.099 69.1379 105.699 69.0593ZM118.119 62.6969V69.0593H117.277V64.1049L113.789 69.0593H113.059V62.6969H113.901V67.6101L117.395 62.6969H118.119ZM124.788 69.2361C124.156 69.2361 123.616 69.0927 123.168 68.806C122.721 68.5193 122.377 68.1226 122.137 67.616C121.898 67.1094 121.778 66.5281 121.778 65.8722C121.778 65.2046 121.9 64.6194 122.143 64.1167C122.387 63.614 122.732 63.2232 123.18 62.9444C123.632 62.6616 124.168 62.5202 124.788 62.5202C125.425 62.5202 125.967 62.6636 126.414 62.9503C126.866 63.233 127.21 63.6277 127.445 64.1344C127.685 64.6371 127.805 65.2164 127.805 65.8722C127.805 66.5399 127.685 67.127 127.445 67.6337C127.206 68.1364 126.86 68.5291 126.409 68.8119C125.957 69.0947 125.417 69.2361 124.788 69.2361ZM124.788 68.4054C125.495 68.4054 126.022 68.1717 126.367 67.7044C126.713 67.2331 126.886 66.6224 126.886 65.8722C126.886 65.1025 126.711 64.4898 126.361 64.0342C126.016 63.5786 125.491 63.3509 124.788 63.3509C124.313 63.3509 123.921 63.4589 123.61 63.6749C123.304 63.8869 123.074 64.1835 122.921 64.5644C122.772 64.9415 122.697 65.3774 122.697 65.8722C122.697 66.6381 122.874 67.2527 123.227 67.7162C123.581 68.1757 124.101 68.4054 124.788 68.4054ZM131.961 69.2361C131.376 69.2361 130.881 69.0888 130.477 68.7942C130.072 68.4957 129.766 68.0932 129.558 67.5866C129.35 67.076 129.246 66.5046 129.246 65.8722C129.246 65.2282 129.35 64.6548 129.558 64.152C129.77 63.6454 130.08 63.2468 130.489 62.9562C130.897 62.6655 131.4 62.5202 131.997 62.5202C132.578 62.5202 133.077 62.6675 133.493 62.962C133.909 63.2566 134.228 63.6572 134.447 64.1638C134.671 64.6705 134.783 65.2399 134.783 65.8722C134.783 66.5085 134.671 67.0799 134.447 67.5866C134.224 68.0932 133.902 68.4957 133.481 68.7942C133.061 69.0888 132.554 69.2361 131.961 69.2361ZM129.098 71.887V62.6969H129.876V67.4864H129.97V71.887H129.098ZM131.873 68.429C132.317 68.429 132.686 68.317 132.981 68.0932C133.275 67.8693 133.495 67.565 133.64 67.1801C133.79 66.7913 133.864 66.3553 133.864 65.8722C133.864 65.3931 133.792 64.9611 133.646 64.5762C133.501 64.1913 133.279 63.8869 132.981 63.6631C132.686 63.4392 132.311 63.3273 131.855 63.3273C131.412 63.3273 131.042 63.4353 130.748 63.6513C130.457 63.8673 130.239 64.1678 130.094 64.5526C129.949 64.9336 129.876 65.3735 129.876 65.8722C129.876 66.3632 129.949 66.803 130.094 67.1919C130.239 67.5767 130.459 67.8791 130.754 68.0991C131.048 68.319 131.421 68.429 131.873 68.429ZM136.077 69.0593V62.6969H140.436V63.5276H136.943V69.0593H136.077ZM143.132 69.2361C142.653 69.2361 142.251 69.1497 141.925 68.9769C141.603 68.804 141.361 68.5743 141.2 68.2876C141.039 68.0009 140.959 67.6887 140.959 67.3509C140.959 67.0053 141.027 66.7107 141.165 66.4672C141.306 66.2198 141.497 66.0176 141.736 65.8605C141.98 65.7034 142.261 65.5836 142.579 65.5011C142.901 65.4226 143.256 65.3538 143.645 65.2949C144.038 65.2321 144.421 65.1791 144.794 65.1359C145.171 65.0887 145.501 65.0436 145.783 65.0004L145.477 65.1889C145.489 64.5605 145.367 64.0951 145.112 63.7927C144.857 63.4903 144.413 63.3391 143.78 63.3391C143.345 63.3391 142.975 63.4373 142.673 63.6336C142.374 63.83 142.164 64.1403 142.043 64.5644L141.2 64.317C141.346 63.7475 141.638 63.3057 142.078 62.9915C142.518 62.6773 143.089 62.5202 143.792 62.5202C144.374 62.5202 144.866 62.6302 145.271 62.8501C145.679 63.0661 145.968 63.3803 146.137 63.7927C146.215 63.9773 146.267 64.1835 146.29 64.4113C146.314 64.639 146.325 64.8708 146.325 65.1064V69.0593H145.554V67.4628L145.778 67.5571C145.562 68.103 145.226 68.5193 144.77 68.806C144.315 69.0927 143.769 69.2361 143.132 69.2361ZM143.233 68.4879C143.637 68.4879 143.991 68.4152 144.293 68.2699C144.595 68.1246 144.839 67.9263 145.024 67.6749C145.208 67.4196 145.328 67.1329 145.383 66.8148C145.43 66.6106 145.456 66.3867 145.459 66.1432C145.463 65.8958 145.465 65.7112 145.465 65.5895L145.795 65.7603C145.501 65.7996 145.181 65.8389 144.835 65.8781C144.493 65.9174 144.156 65.9626 143.822 66.0136C143.492 66.0647 143.193 66.1256 142.926 66.1963C142.746 66.2473 142.571 66.32 142.402 66.4142C142.233 66.5046 142.094 66.6263 141.984 66.7795C141.878 66.9326 141.825 67.1231 141.825 67.3509C141.825 67.5355 141.87 67.7142 141.96 67.887C142.054 68.0598 142.204 68.2032 142.408 68.317C142.616 68.4309 142.891 68.4879 143.233 68.4879ZM147.853 69.0593V62.6969H148.719V65.4599H152.307V62.6969H153.173V69.0593H152.307V66.2905H148.719V69.0593H147.853ZM159.875 62.6969V69.0593H159.032V64.1049L155.545 69.0593H154.814V62.6969H155.657V67.6101L159.15 62.6969H159.875ZM163.82 69.2361C163.18 69.2361 162.62 69.0966 162.141 68.8178C161.666 68.535 161.291 68.1442 161.016 67.6455L161.711 67.2036C161.943 67.5964 162.231 67.8949 162.577 68.0991C162.922 68.3033 163.319 68.4054 163.767 68.4054C164.234 68.4054 164.609 68.2974 164.892 68.0814C165.175 67.8654 165.316 67.5689 165.316 67.1919C165.316 66.9326 165.255 66.7265 165.134 66.5733C165.016 66.4201 164.835 66.3102 164.592 66.2434C164.352 66.1766 164.052 66.1432 163.69 66.1432H162.936V65.401H163.678C164.118 65.401 164.472 65.3224 164.739 65.1653C165.01 65.0043 165.145 64.7529 165.145 64.4113C165.145 64.0499 165.01 63.7829 164.739 63.6101C164.472 63.4333 164.152 63.345 163.779 63.345C163.402 63.345 163.044 63.4235 162.706 63.5806C162.373 63.7338 162.092 63.9321 161.864 64.1756L161.31 63.5924C161.628 63.2429 162 62.9778 162.424 62.7971C162.852 62.6125 163.325 62.5202 163.843 62.5202C164.252 62.5202 164.621 62.5929 164.951 62.7382C165.285 62.8796 165.548 63.0877 165.74 63.3626C165.937 63.6376 166.035 63.9675 166.035 64.3523C166.035 64.7137 165.947 65.0259 165.77 65.289C165.597 65.5522 165.352 65.7701 165.033 65.9429L164.986 65.6189C165.261 65.67 165.489 65.78 165.67 65.9488C165.85 66.1177 165.984 66.32 166.07 66.5556C166.157 66.7913 166.2 67.0308 166.2 67.2743C166.2 67.6788 166.094 68.0284 165.882 68.3229C165.674 68.6136 165.389 68.8394 165.028 69.0004C164.67 69.1575 164.268 69.2361 163.82 69.2361ZM169.32 69.2361C168.841 69.2361 168.439 69.1497 168.113 68.9769C167.79 68.804 167.549 68.5743 167.388 68.2876C167.227 68.0009 167.146 67.6887 167.146 67.3509C167.146 67.0053 167.215 66.7107 167.353 66.4672C167.494 66.2198 167.684 66.0176 167.924 65.8605C168.168 65.7034 168.448 65.5836 168.766 65.5011C169.088 65.4226 169.444 65.3538 169.833 65.2949C170.225 65.2321 170.608 65.1791 170.981 65.1359C171.359 65.0887 171.688 65.0436 171.971 65.0004L171.665 65.1889C171.677 64.5605 171.555 64.0951 171.3 63.7927C171.044 63.4903 170.601 63.3391 169.968 63.3391C169.532 63.3391 169.163 63.4373 168.861 63.6336C168.562 63.83 168.352 64.1403 168.23 64.5644L167.388 64.317C167.533 63.7475 167.826 63.3057 168.266 62.9915C168.706 62.6773 169.277 62.5202 169.98 62.5202C170.561 62.5202 171.054 62.6302 171.459 62.8501C171.867 63.0661 172.156 63.3803 172.325 63.7927C172.403 63.9773 172.454 64.1835 172.478 64.4113C172.501 64.639 172.513 64.8708 172.513 65.1064V69.0593H171.741V67.4628L171.965 67.5571C171.749 68.103 171.414 68.5193 170.958 68.806C170.502 69.0927 169.956 69.2361 169.32 69.2361ZM169.42 68.4879C169.825 68.4879 170.178 68.4152 170.481 68.2699C170.783 68.1246 171.027 67.9263 171.211 67.6749C171.396 67.4196 171.516 67.1329 171.571 66.8148C171.618 66.6106 171.643 66.3867 171.647 66.1432C171.651 65.8958 171.653 65.7112 171.653 65.5895L171.983 65.7603C171.688 65.7996 171.368 65.8389 171.023 65.8781C170.681 65.9174 170.343 65.9626 170.009 66.0136C169.68 66.0647 169.381 66.1256 169.114 66.1963C168.933 66.2473 168.759 66.32 168.59 66.4142C168.421 66.5046 168.281 66.6263 168.171 66.7795C168.065 66.9326 168.012 67.1231 168.012 67.3509C168.012 67.5355 168.058 67.7142 168.148 67.887C168.242 68.0598 168.391 68.2032 168.596 68.317C168.804 68.4309 169.079 68.4879 169.42 68.4879ZM179.514 70.161V69.0593H174.041V62.6969H174.907V68.2287H178.235V62.6969H179.101V68.2581H180.38V70.161H179.514ZM186.373 62.6969V69.0593H185.531V64.1049L182.043 69.0593H181.313V62.6969H182.155V67.6101L185.649 62.6969H186.373ZM193.034 69.2361C192.472 69.2361 191.983 69.1163 191.567 68.8767C191.151 68.6332 190.819 68.2935 190.572 67.8575C190.328 67.4177 190.181 66.9012 190.13 66.3082H188.887V69.0593H188.021V62.6969H188.887V65.4481H190.124C190.175 64.8472 190.324 64.3288 190.572 63.8928C190.823 63.453 191.157 63.1152 191.573 62.8796C191.993 62.64 192.482 62.5202 193.04 62.5202C193.672 62.5202 194.212 62.6636 194.66 62.9503C195.112 63.237 195.455 63.6317 195.691 64.1344C195.931 64.6371 196.05 65.2144 196.05 65.8664C196.05 66.534 195.929 67.1212 195.685 67.6278C195.445 68.1344 195.1 68.5291 194.648 68.8119C194.2 69.0947 193.662 69.2361 193.034 69.2361ZM193.016 68.4054C193.731 68.4054 194.261 68.1737 194.607 67.7103C194.957 67.2429 195.131 66.6302 195.131 65.8722C195.131 65.0986 194.955 64.4859 194.601 64.0342C194.252 63.5786 193.725 63.3509 193.022 63.3509C192.351 63.3509 191.836 63.5747 191.479 64.0224C191.121 64.4662 190.943 65.0809 190.943 65.8664C190.943 66.6361 191.117 67.2527 191.467 67.7162C191.82 68.1757 192.337 68.4054 193.016 68.4054ZM26.3728 87.0593V79.5423L24.7763 80.5025V79.5305L26.3728 78.5762H27.2505V87.0593H26.3728ZM32.2538 87.2361C31.7315 87.2361 31.2602 87.1143 30.8399 86.8708C30.4236 86.6273 30.0937 86.2974 29.8502 85.8811C29.6067 85.4609 29.485 84.9896 29.485 84.4672V81.1682C29.485 80.6459 29.6067 80.1766 29.8502 79.7603C30.0937 79.34 30.4236 79.0082 30.8399 78.7647C31.2602 78.5212 31.7315 78.3994 32.2538 78.3994C32.7762 78.3994 33.2455 78.5212 33.6618 78.7647C34.082 79.0082 34.4139 79.34 34.6574 79.7603C34.9009 80.1766 35.0226 80.6459 35.0226 81.1682V84.4672C35.0226 84.9896 34.9009 85.4609 34.6574 85.8811C34.4139 86.2974 34.082 86.6273 33.6618 86.8708C33.2455 87.1143 32.7762 87.2361 32.2538 87.2361ZM32.2538 86.3995C32.6033 86.3995 32.9215 86.3151 33.2082 86.1462C33.4949 85.9734 33.7227 85.7436 33.8915 85.4569C34.0604 85.1703 34.1448 84.8541 34.1448 84.5085V81.127C34.1448 80.7775 34.0604 80.4593 33.8915 80.1726C33.7227 79.8859 33.4949 79.6582 33.2082 79.4893C32.9215 79.3165 32.6033 79.2301 32.2538 79.2301C31.9043 79.2301 31.5862 79.3165 31.2995 79.4893C31.0128 79.6582 30.785 79.8859 30.6161 80.1726C30.4472 80.4593 30.3628 80.7775 30.3628 81.127V84.5085C30.3628 84.8541 30.4472 85.1703 30.6161 85.4569C30.785 85.7436 31.0128 85.9734 31.2995 86.1462C31.5862 86.3151 31.9043 86.3995 32.2538 86.3995ZM44.0896 80.6969V87.0593H43.2471V82.1049L39.7596 87.0593H39.0291V80.6969H39.8715V85.6101L43.365 80.6969H44.0896ZM50.6526 87.2419C50.0596 87.238 49.551 87.1084 49.1268 86.8531C48.7026 86.5979 48.3727 86.2169 48.1371 85.7103C47.9054 85.2036 47.7797 84.5713 47.7601 83.8133C47.7483 83.4795 47.7561 83.1162 47.7836 82.7235C47.8111 82.3268 47.8543 81.9498 47.9132 81.5924C47.9722 81.235 48.0428 80.9444 48.1253 80.7205C48.2274 80.4299 48.3727 80.1589 48.5613 79.9075C48.7537 79.6523 48.9756 79.4441 49.227 79.2831C49.4705 79.1181 49.7454 78.9905 50.0517 78.9002C50.362 78.8059 50.684 78.7333 51.0178 78.6822C51.3556 78.6311 51.6894 78.586 52.0193 78.5467C52.3532 78.5074 52.6615 78.4583 52.9442 78.3994L53.0385 79.1829C52.8225 79.2261 52.5672 79.2654 52.2726 79.3008C51.9781 79.3361 51.6698 79.3793 51.3477 79.4304C51.0257 79.4775 50.7174 79.5423 50.4228 79.6248C50.1283 79.7072 49.8769 79.8153 49.6688 79.9488C49.3507 80.1412 49.1052 80.4319 48.9324 80.8207C48.7635 81.2095 48.6594 81.6552 48.6202 82.1579C48.8637 81.777 49.1857 81.4903 49.5863 81.2978C49.9908 81.1054 50.4287 81.0092 50.9 81.0092C51.4734 81.0092 51.9663 81.1407 52.3787 81.4039C52.795 81.667 53.1151 82.0323 53.3389 82.4996C53.5628 82.967 53.6747 83.5031 53.6747 84.1079C53.6747 84.7402 53.551 85.292 53.3036 85.7633C53.0601 86.2346 52.7125 86.5998 52.2609 86.859C51.8092 87.1143 51.2731 87.2419 50.6526 87.2419ZM50.7174 86.4113C51.3851 86.4113 51.8917 86.2032 52.2373 85.7869C52.5868 85.3705 52.7616 84.8168 52.7616 84.1256C52.7616 83.4186 52.5809 82.8609 52.2196 82.4525C51.8622 82.044 51.3576 81.8398 50.7056 81.8398C50.0537 81.8398 49.5529 82.044 49.2034 82.4525C48.8539 82.8609 48.6791 83.4186 48.6791 84.1256C48.6791 84.8325 48.8539 85.3902 49.2034 85.7986C49.5529 86.2071 50.0576 86.4113 50.7174 86.4113ZM57.6277 87.2361C56.9954 87.2361 56.4554 87.0927 56.0077 86.806C55.56 86.5193 55.2163 86.1226 54.9768 85.616C54.7372 85.1094 54.6174 84.5281 54.6174 83.8722C54.6174 83.2046 54.7391 82.6194 54.9826 82.1167C55.2261 81.614 55.5718 81.2232 56.0195 80.9444C56.4711 80.6616 57.0072 80.5202 57.6277 80.5202C58.264 80.5202 58.806 80.6636 59.2537 80.9503C59.7053 81.233 60.049 81.6277 60.2846 82.1344C60.5242 82.6371 60.644 83.2164 60.644 83.8722C60.644 84.5399 60.5242 85.127 60.2846 85.6337C60.0451 86.1364 59.6994 86.5291 59.2478 86.8119C58.7961 87.0947 58.2561 87.2361 57.6277 87.2361ZM57.6277 86.4054C58.3347 86.4054 58.8609 86.1717 59.2066 85.7044C59.5522 85.2331 59.725 84.6224 59.725 83.8722C59.725 83.1025 59.5502 82.4898 59.2007 82.0342C58.8551 81.5786 58.3307 81.3509 57.6277 81.3509C57.1525 81.3509 56.7598 81.4589 56.4495 81.6749C56.1432 81.8869 55.9134 82.1835 55.7603 82.5644C55.611 82.9415 55.5364 83.3774 55.5364 83.8722C55.5364 84.6381 55.7131 85.2527 56.0666 85.7162C56.4201 86.1757 56.9404 86.4054 57.6277 86.4054ZM61.3544 87.0593V86.2994C61.5901 86.3426 61.7687 86.3328 61.8905 86.2699C62.0162 86.2032 62.1085 86.0932 62.1674 85.94C62.2263 85.7829 62.2754 85.5885 62.3147 85.3568C62.3775 84.9719 62.4344 84.5478 62.4855 84.0843C62.5366 83.6209 62.5817 83.1103 62.621 82.5526C62.6642 81.991 62.7074 81.3725 62.7506 80.6969H67.0747V87.0593H66.2146V81.5276H63.5518C63.5243 81.9439 63.4929 82.3582 63.4575 82.7706C63.4222 83.183 63.3849 83.5797 63.3456 83.9606C63.3102 84.3376 63.271 84.6852 63.2278 85.0033C63.1846 85.3215 63.1394 85.5964 63.0923 85.8281C63.0216 86.1776 62.9273 86.4565 62.8095 86.6646C62.6956 86.8728 62.5248 87.0102 62.297 87.077C62.0692 87.1438 61.755 87.1379 61.3544 87.0593ZM71.4128 87.2361C70.7923 87.2361 70.2542 87.0986 69.7986 86.8237C69.347 86.5488 68.9955 86.1619 68.7441 85.6631C68.4928 85.1644 68.3671 84.5792 68.3671 83.9076C68.3671 83.2124 68.4908 82.6116 68.7382 82.1049C68.9857 81.5983 69.3332 81.2075 69.781 80.9326C70.2326 80.6577 70.7648 80.5202 71.3775 80.5202C72.0058 80.5202 72.5419 80.6655 72.9857 80.9562C73.4295 81.2429 73.7653 81.6552 73.9931 82.1933C74.2209 82.7313 74.325 83.3735 74.3053 84.1197H73.4217V83.8133C73.4059 82.9886 73.2273 82.3661 72.8856 81.9459C72.5478 81.5256 72.053 81.3155 71.401 81.3155C70.7176 81.3155 70.1933 81.5374 69.8281 81.9812C69.4668 82.425 69.2861 83.0573 69.2861 83.8781C69.2861 84.6793 69.4668 85.3018 69.8281 85.7456C70.1933 86.1855 70.7098 86.4054 71.3775 86.4054C71.833 86.4054 72.2297 86.3013 72.5675 86.0932C72.9091 85.8811 73.1782 85.5767 73.3745 85.1801L74.1816 85.4923C73.9303 86.0461 73.5591 86.4761 73.0682 86.7824C72.5812 87.0849 72.0294 87.2361 71.4128 87.2361ZM68.9798 84.1197V83.3951H73.8399V84.1197H68.9798ZM78.3049 87.2361C77.6844 87.2361 77.1463 87.0986 76.6908 86.8237C76.2391 86.5488 75.8876 86.1619 75.6362 85.6631C75.3849 85.1644 75.2592 84.5792 75.2592 83.9076C75.2592 83.2124 75.3829 82.6116 75.6304 82.1049C75.8778 81.5983 76.2254 81.2075 76.6731 80.9326C77.1247 80.6577 77.6569 80.5202 78.2696 80.5202C78.8979 80.5202 79.434 80.6655 79.8778 80.9562C80.3216 81.2429 80.6574 81.6552 80.8852 82.1933C81.113 82.7313 81.2171 83.3735 81.1974 84.1197H80.3138V83.8133C80.2981 82.9886 80.1194 82.3661 79.7777 81.9459C79.4399 81.5256 78.9451 81.3155 78.2931 81.3155C77.6098 81.3155 77.0855 81.5374 76.7202 81.9812C76.3589 82.425 76.1782 83.0573 76.1782 83.8781C76.1782 84.6793 76.3589 85.3018 76.7202 85.7456C77.0855 86.1855 77.6019 86.4054 78.2696 86.4054C78.7251 86.4054 79.1218 86.3013 79.4596 86.0932C79.8012 85.8811 80.0703 85.5767 80.2666 85.1801L81.0737 85.4923C80.8224 86.0461 80.4512 86.4761 79.9603 86.7824C79.4733 87.0849 78.9215 87.2361 78.3049 87.2361ZM75.8719 84.1197V83.3951H80.732V84.1197H75.8719ZM84.8576 87.0593V80.6969H85.6294L88.1095 85.9047L90.5956 80.6969H91.3614V87.0593H90.5249V82.5468L88.3864 87.0593H87.8385L85.7001 82.5468V87.0593H84.8576ZM95.702 87.2361C95.0815 87.2361 94.5435 87.0986 94.0879 86.8237C93.6362 86.5488 93.2847 86.1619 93.0334 85.6631C92.782 85.1644 92.6563 84.5792 92.6563 83.9076C92.6563 83.2124 92.7801 82.6116 93.0275 82.1049C93.2749 81.5983 93.6225 81.2075 94.0702 80.9326C94.5218 80.6577 95.054 80.5202 95.6667 80.5202C96.2951 80.5202 96.8312 80.6655 97.275 80.9562C97.7187 81.2429 98.0545 81.6552 98.2823 82.1933C98.5101 82.7313 98.6142 83.3735 98.5946 84.1197H97.7109V83.8133C97.6952 82.9886 97.5165 82.3661 97.1748 81.9459C96.837 81.5256 96.3422 81.3155 95.6902 81.3155C95.0069 81.3155 94.4826 81.5374 94.1173 81.9812C93.756 82.425 93.5753 83.0573 93.5753 83.8781C93.5753 84.6793 93.756 85.3018 94.1173 85.7456C94.4826 86.1855 94.999 86.4054 95.6667 86.4054C96.1223 86.4054 96.5189 86.3013 96.8567 86.0932C97.1984 85.8811 97.4674 85.5767 97.6638 85.1801L98.4708 85.4923C98.2195 86.0461 97.8484 86.4761 97.3574 86.7824C96.8704 87.0849 96.3186 87.2361 95.702 87.2361ZM93.269 84.1197V83.3951H98.1292V84.1197H93.269ZM102.759 87.2361C102.174 87.2361 101.679 87.0888 101.275 86.7942C100.87 86.4957 100.564 86.0932 100.356 85.5866C100.147 85.076 100.043 84.5046 100.043 83.8722C100.043 83.2282 100.147 82.6548 100.356 82.152C100.568 81.6454 100.878 81.2468 101.286 80.9562C101.695 80.6655 102.197 80.5202 102.794 80.5202C103.376 80.5202 103.874 80.6675 104.291 80.962C104.707 81.2566 105.025 81.6572 105.245 82.1638C105.469 82.6705 105.581 83.2399 105.581 83.8722C105.581 84.5085 105.469 85.0799 105.245 85.5866C105.021 86.0932 104.699 86.4957 104.279 86.7942C103.859 87.0888 103.352 87.2361 102.759 87.2361ZM99.896 89.887V80.6969H100.674V85.4864H100.768V89.887H99.896ZM102.671 86.429C103.115 86.429 103.484 86.317 103.778 86.0932C104.073 85.8693 104.293 85.565 104.438 85.1801C104.587 84.7913 104.662 84.3553 104.662 83.8722C104.662 83.3931 104.589 82.9611 104.444 82.5762C104.299 82.1913 104.077 81.8869 103.778 81.6631C103.484 81.4392 103.109 81.3273 102.653 81.3273C102.209 81.3273 101.84 81.4353 101.546 81.6513C101.255 81.8673 101.037 82.1678 100.892 82.5526C100.746 82.9336 100.674 83.3735 100.674 83.8722C100.674 84.3632 100.746 84.803 100.892 85.1919C101.037 85.5767 101.257 85.8791 101.551 86.0991C101.846 86.319 102.219 86.429 102.671 86.429ZM109.531 87.2361C108.899 87.2361 108.359 87.0927 107.911 86.806C107.464 86.5193 107.12 86.1226 106.88 85.616C106.641 85.1094 106.521 84.5281 106.521 83.8722C106.521 83.2046 106.643 82.6194 106.886 82.1167C107.13 81.614 107.475 81.2232 107.923 80.9444C108.375 80.6616 108.911 80.5202 109.531 80.5202C110.168 80.5202 110.71 80.6636 111.157 80.9503C111.609 81.233 111.953 81.6277 112.188 82.1344C112.428 82.6371 112.548 83.2164 112.548 83.8722C112.548 84.5399 112.428 85.127 112.188 85.6337C111.949 86.1364 111.603 86.5291 111.152 86.8119C110.7 87.0947 110.16 87.2361 109.531 87.2361ZM109.531 86.4054C110.238 86.4054 110.765 86.1717 111.11 85.7044C111.456 85.2331 111.629 84.6224 111.629 83.8722C111.629 83.1025 111.454 82.4898 111.104 82.0342C110.759 81.5786 110.234 81.3509 109.531 81.3509C109.056 81.3509 108.663 81.4589 108.353 81.6749C108.047 81.8869 107.817 82.1835 107.664 82.5644C107.515 82.9415 107.44 83.3774 107.44 83.8722C107.44 84.6381 107.617 85.2527 107.97 85.7162C108.324 86.1757 108.844 86.4054 109.531 86.4054ZM113.841 87.0593V80.6969H118.902V87.0593H118.036V81.5276H114.707V87.0593H113.841ZM123.412 87.2361C122.827 87.2361 122.332 87.0888 121.928 86.7942C121.523 86.4957 121.217 86.0932 121.009 85.5866C120.801 85.076 120.697 84.5046 120.697 83.8722C120.697 83.2282 120.801 82.6548 121.009 82.152C121.221 81.6454 121.531 81.2468 121.94 80.9562C122.348 80.6655 122.851 80.5202 123.448 80.5202C124.029 80.5202 124.528 80.6675 124.944 80.962C125.36 81.2566 125.679 81.6572 125.898 82.1638C126.122 82.6705 126.234 83.2399 126.234 83.8722C126.234 84.5085 126.122 85.0799 125.898 85.5866C125.675 86.0932 125.353 86.4957 124.932 86.7942C124.512 87.0888 124.005 87.2361 123.412 87.2361ZM120.549 89.887V80.6969H121.327V85.4864H121.421V89.887H120.549ZM123.324 86.429C123.768 86.429 124.137 86.317 124.432 86.0932C124.726 85.8693 124.946 85.565 125.091 85.1801C125.241 84.7913 125.315 84.3553 125.315 83.8722C125.315 83.3931 125.243 82.9611 125.097 82.5762C124.952 82.1913 124.73 81.8869 124.432 81.6631C124.137 81.4392 123.762 81.3273 123.306 81.3273C122.863 81.3273 122.493 81.4353 122.199 81.6513C121.908 81.8673 121.69 82.1678 121.545 82.5526C121.4 82.9336 121.327 83.3735 121.327 83.8722C121.327 84.3632 121.4 84.803 121.545 85.1919C121.69 85.5767 121.91 85.8791 122.205 86.0991C122.499 86.319 122.872 86.429 123.324 86.429ZM132.582 80.6969V87.0593H131.74V82.1049L128.253 87.0593H127.522V80.6969H128.364V85.6101L131.858 80.6969H132.582ZM138.224 87.0593V84.6617H136.74C136.567 84.6617 136.388 84.6558 136.204 84.644C136.023 84.6283 135.854 84.6067 135.697 84.5792C135.249 84.4928 134.868 84.2964 134.554 83.9901C134.244 83.6798 134.089 83.2517 134.089 82.7058C134.089 82.1717 134.234 81.7436 134.525 81.4216C134.815 81.0956 135.167 80.8835 135.579 80.7853C135.768 80.7421 135.958 80.7166 136.151 80.7087C136.347 80.7009 136.516 80.6969 136.657 80.6969H139.09L139.096 87.0593H138.224ZM133.882 87.0593L135.656 84.3907H136.616L134.831 87.0593H133.882ZM136.693 83.9194H138.224V81.4392H136.693C136.598 81.4392 136.467 81.4432 136.298 81.451C136.129 81.4589 135.97 81.4844 135.821 81.5276C135.691 81.5669 135.561 81.6356 135.432 81.7338C135.306 81.828 135.2 81.9557 135.114 82.1167C135.027 82.2738 134.984 82.4662 134.984 82.694C134.984 83.0121 135.07 83.2674 135.243 83.4599C135.42 83.6484 135.64 83.778 135.903 83.8487C136.044 83.8801 136.186 83.8997 136.327 83.9076C136.469 83.9154 136.59 83.9194 136.693 83.9194ZM142.474 87.0593V81.4981H140.218V80.6969H145.597V81.4981H143.34V87.0593H142.474ZM151.775 80.6969V87.0593H150.932V82.1049L147.445 87.0593H146.714V80.6969H147.557V85.6101L151.05 80.6969H151.775ZM156.067 79.9429C155.788 79.9429 155.533 79.8742 155.301 79.7367C155.07 79.5992 154.885 79.4166 154.748 79.1888C154.614 78.9571 154.547 78.7018 154.547 78.423H155.266C155.266 78.6429 155.345 78.8314 155.502 78.9885C155.659 79.1456 155.847 79.2242 156.067 79.2242C156.291 79.2242 156.48 79.1456 156.633 78.9885C156.79 78.8314 156.868 78.6429 156.868 78.423H157.587C157.587 78.7018 157.518 78.9571 157.381 79.1888C157.247 79.4166 157.065 79.5992 156.833 79.7367C156.601 79.8742 156.346 79.9429 156.067 79.9429ZM158.483 80.6969V87.0593H157.64V82.1049L154.153 87.0593H153.422V80.6969H154.265V85.6101L157.758 80.6969H158.483Z" fill="#474747"/>
<g clip-path="url(#clip0_17733_140588)">
<path d="M136.953 15.2234C137.457 14.537 138.483 14.5369 138.988 15.2234L145.866 24.5837C146.478 25.4174 145.883 26.5945 144.848 26.5945H131.092C130.058 26.5945 129.462 25.4174 130.075 24.5837L136.953 15.2234Z" fill="white" stroke="#A66DFF" stroke-width="0.841584"/>
</g>
</g>
<defs>
<filter id="filter0_d_17733_140588" x="-8.2016e-05" y="-7.48634e-05" width="275.941" height="128.247" filterUnits="userSpaceOnUse" color-interpolation-filters="sRGB">
<feFlood flood-opacity="0" result="BackgroundImageFix"/>
<feColorMatrix in="SourceAlpha" type="matrix" values="0 0 0 0 0 0 0 0 0 0 0 0 0 0 0 0 0 0 127 0" result="hardAlpha"/>
<feOffset dy="6.73267"/>
<feGaussianBlur stdDeviation="6.98515"/>
<feComposite in2="hardAlpha" operator="out"/>
<feColorMatrix type="matrix" values="0 0 0 0 0 0 0 0 0 0 0 0 0 0 0 0 0 0 0.14 0"/>
<feBlend mode="normal" in2="BackgroundImageFix" result="effect1_dropShadow_17733_140588"/>
<feBlend mode="normal" in="SourceGraphic" in2="effect1_dropShadow_17733_140588" result="shape"/>
</filter>
<clipPath id="clip0_17733_140588">
<rect width="23.5644" height="15.1485" fill="white" transform="translate(126.188 7.23755)"/>
</clipPath>
</defs>
</svg>
