<svg viewBox="0 0 99 32" fill="none" xmlns="http://www.w3.org/2000/svg">
<path d="M16.4365 5.9585H21.1695L13.9611 18.6023V24.9107H9.50012V18.6023L2.29175 5.9585H7.02479L11.7306 14.5682L16.4365 5.9585Z" fill="white"/>
<path d="M26.9147 25.2085C24.8474 25.2085 23.1338 24.5677 21.7737 23.2862C20.4136 21.9866 19.7336 20.299 19.7336 18.2233C19.7336 16.1656 20.4045 14.487 21.7465 13.1874C23.1065 11.8878 24.784 11.238 26.7787 11.238C28.7372 11.238 30.3603 11.8517 31.6478 13.0791C32.9353 14.2884 33.5791 15.8858 33.5791 17.8713C33.5791 18.2323 33.5519 18.6835 33.4975 19.225H24.113C24.2581 20.0734 24.5754 20.7141 25.065 21.1473C25.5728 21.5805 26.1803 21.7971 26.8875 21.7971C27.486 21.7971 28.0028 21.6527 28.438 21.3639C28.8732 21.0571 29.1453 20.6509 29.2541 20.1456L33.0351 21.1473C32.6724 22.483 31.9289 23.4938 30.8045 24.1797C29.6984 24.8656 28.4018 25.2085 26.9147 25.2085ZM24.249 16.5176H29.4173C29.3085 16.0302 29.0183 15.6061 28.5468 15.2451C28.0935 14.866 27.5132 14.6765 26.8059 14.6765C25.5365 14.6765 24.6842 15.2902 24.249 16.5176Z" fill="white"/>
<path d="M48.0417 21.4451C48.1868 21.4451 48.3953 21.4 48.6674 21.3098V24.9648C48.2865 25.1092 47.7516 25.1814 47.0625 25.1814C45.3216 25.1814 44.1429 24.6941 43.5263 23.7194C42.5833 24.6941 41.2323 25.1814 39.4733 25.1814C38.0951 25.1814 36.9708 24.8204 36.1003 24.0984C35.248 23.3765 34.8218 22.3837 34.8218 21.1202C34.8218 19.947 35.2117 18.9994 35.9915 18.2774C36.7713 17.5554 37.8231 17.1313 39.1469 17.0049L43.0367 16.6529V16.3822C43.0367 15.8588 42.8553 15.4436 42.4926 15.1368C42.13 14.8119 41.6675 14.6494 41.1054 14.6494C40.0899 14.6494 39.4824 15.1368 39.2829 16.1115L35.3931 15.57C35.6288 14.0538 36.2998 12.9528 37.406 12.2669C38.5303 11.581 39.8722 11.238 41.4318 11.238C43.2815 11.238 44.7322 11.6803 45.784 12.5647C46.8539 13.4311 47.3889 14.6675 47.3889 16.2739V20.7141C47.3889 21.2015 47.6065 21.4451 48.0417 21.4451ZM43.0367 19.6582V19.3604L40.4797 19.6582C40.0445 19.7124 39.7 19.8568 39.4461 20.0914C39.1922 20.308 39.0653 20.5697 39.0653 20.8766C39.0653 21.2376 39.2194 21.5173 39.5277 21.7159C39.8541 21.9144 40.2621 22.0047 40.7518 21.9866C41.4046 21.9505 41.9486 21.7339 42.3838 21.3368C42.8191 20.9397 43.0367 20.3802 43.0367 19.6582Z" fill="white"/>
<path d="M58.4545 11.238C59.9778 11.238 61.22 11.6803 62.1811 12.5647C63.1604 13.4491 63.65 14.6855 63.65 16.2739V24.9107H59.2978V17.6005C59.2978 16.7883 59.0983 16.1836 58.6994 15.7866C58.3004 15.3714 57.7564 15.1638 57.0673 15.1638C56.3782 15.1638 55.8251 15.3804 55.408 15.8136C55.009 16.2468 54.8096 16.8786 54.8096 17.7088V24.9107H50.4573V5.9585H54.8096V12.6188C55.6981 11.6983 56.9131 11.238 58.4545 11.238Z" fill="white"/>
<path d="M74.942 11.5088H79.2942V24.9107H74.942V23.8006C74.0534 24.7212 72.8384 25.1814 71.297 25.1814C69.8463 25.1814 68.6131 24.7212 67.5976 23.8006C66.6002 22.862 66.1015 21.5534 66.1015 19.8748V11.5088H70.4538V18.9272C70.4538 19.7033 70.6532 20.29 71.0522 20.687C71.4511 21.0661 71.9952 21.2556 72.6843 21.2556C73.3734 21.2556 73.9174 21.039 74.3164 20.6058C74.7334 20.1726 74.942 19.5409 74.942 18.7106V11.5088Z" fill="white"/>
<path d="M90.0713 11.238C91.921 11.238 93.4896 11.8968 94.7771 13.2145C96.0646 14.5141 96.7084 16.1836 96.7084 18.2233C96.7084 20.2268 96.0737 21.8874 94.8043 23.205C93.5349 24.5226 91.9663 25.1814 90.0985 25.1814C88.5027 25.1814 87.197 24.6941 86.1815 23.7194V24.9107H81.8292V5.9585H86.1815V12.673C87.1789 11.7163 88.4754 11.238 90.0713 11.238ZM89.2008 21.4181C90.035 21.4181 90.7422 21.1293 91.3225 20.5517C91.9028 19.956 92.193 19.1799 92.193 18.2233C92.193 17.2486 91.9028 16.4724 91.3225 15.8949C90.7604 15.2992 90.0531 15.0014 89.2008 15.0014C88.3304 15.0014 87.605 15.2992 87.0247 15.8949C86.4626 16.4724 86.1815 17.2486 86.1815 18.2233C86.1815 19.1799 86.4626 19.956 87.0247 20.5517C87.605 21.1293 88.3304 21.4181 89.2008 21.4181Z" fill="white"/>
</svg>
