<svg viewBox="0 0 2367 2367" fill="none" xmlns="http://www.w3.org/2000/svg">
<circle cx="1183.12" cy="1183.12" r="1183.12" fill="#4600E9"/>
<path fill-rule="evenodd" clip-rule="evenodd" d="M1902.52 822.38C1855.5 854.546 1825.7 892.901 1813.61 936.801C1806.56 962.386 1804.12 987.32 1808.41 989.974C1815.01 994.048 1859.55 968.924 1880.54 949.294C1903.27 928.024 1921.06 897.913 1929.08 867.116C1934.26 847.227 1935.85 804.385 1931.41 804.385C1929.99 804.385 1916.98 812.484 1902.52 822.38ZM1828.19 947.761C1825.71 945.881 1837.71 922.979 1844.99 915.699C1857.64 903.045 1857.07 905.961 1842.59 928.056C1835.22 939.307 1828.74 948.174 1828.19 947.761Z" fill="white"/>
<path d="M826.225 1148.87C825.561 1149.53 812.498 1148.54 797.194 1146.67L770.478 1143.4C769.764 1143.31 769.106 1142.98 768.621 1142.44L753.562 1125.97C720.802 1090.12 685.12 1078.68 605.88 1078.61C547.45 1078.55 545.57 1079.29 555.423 1098.43C579.62 1145.42 634.35 1175.33 696.154 1175.33C712.752 1175.33 734.235 1173.27 743.898 1170.77C754.036 1168.14 763.57 1167.34 766.444 1168.87C769.182 1170.34 791.582 1174.93 816.223 1179.08L861.023 1186.62L826.225 1148.87Z" fill="white"/>
<path fill-rule="evenodd" clip-rule="evenodd" d="M787.427 641.561C787.44 625.556 789.366 607.022 791.708 600.367C794.052 593.716 797.21 588.271 798.723 588.271C803.548 588.271 815.13 607.138 822.038 626.24C829.16 645.935 831.918 699.947 826.751 718.51L825.502 722.992C824.895 725.173 822.19 725.929 820.54 724.379L816.13 720.236C796.465 701.76 787.409 666.963 787.427 641.561ZM1688.08 804.655C1689.31 797.518 1694.7 791.097 1705.2 777.745C1716.02 763.978 1726.01 753.411 1727.38 754.263C1731.43 756.762 1749.48 807.075 1756.36 835.028C1766.9 877.844 1770.53 915.522 1768.47 960.825C1764.72 1043.11 1737.33 1118.96 1680.42 1204.65C1651.95 1247.52 1612.82 1293.69 1534.55 1376.78C1453.76 1462.54 1444.2 1473.1 1418.4 1505.08C1341.33 1600.63 1301.95 1693.7 1301.87 1780.5C1301.81 1841.62 1320.47 1903.5 1355.5 1958.39C1361.47 1967.75 1366.35 1976.09 1366.35 1976.94C1366.35 1977.8 1290.88 1978.49 1198.63 1978.49C1106.39 1978.49 1030.92 1977.81 1030.92 1976.98C1030.92 1976.15 1041.64 1953.29 1054.75 1926.18C1079.37 1875.26 1089.34 1850.09 1127.25 1743.03C1209.25 1511.46 1272.86 1412.72 1418.52 1290.93C1487.07 1233.62 1557.75 1178.03 1617.49 1111.22C1627.48 1100.04 1637.09 1088.52 1645.77 1076.29C1667.26 1046.01 1686.09 1009.19 1697.27 975.34C1705.29 951.052 1706.34 943.136 1706.42 905.99C1706.48 881.074 1704.91 859.746 1696.11 836.435L1696.08 836.355C1689.84 819.804 1686.84 811.864 1688.08 804.655Z" fill="white"/>
<path d="M1843.7 563.667C1794.05 584.314 1761.19 619.25 1752.98 660.108C1748.22 683.813 1751.33 701.166 1760.32 701.166C1781.32 701.166 1834.21 661.037 1852.32 631.365C1861.84 615.766 1872.73 581.423 1872.73 566.966C1872.73 553.654 1868.83 553.213 1843.7 563.667Z" fill="white"/>
<path d="M1442.27 388.689C1401.82 436.566 1402.07 534.117 1442.76 581.659L1453.42 594.117C1453.94 594.729 1454.2 595.526 1454.13 596.329L1452 621.508C1449.25 654.054 1440.51 695.376 1429.28 728.984C1409.35 788.608 1358.13 877.654 1302.43 949.535C1272.31 988.4 1200.42 1075.87 1186.13 1091.34C1184.9 1092.67 1182.67 1094.97 1181.57 1096.42L1150.76 1136.86L1131.6 1166.57C1121.07 1182.92 1110.43 1200.18 1107.96 1204.95L1105.6 1209.52C1104.6 1211.44 1101.96 1211.72 1100.59 1210.03L1082.52 1187.81C1059.44 1159.42 1027.79 1130.31 985.601 1098.71L958.932 1078.72C958.347 1078.28 957.942 1077.64 957.791 1076.93L942.617 1004.92C914.812 872.951 911.083 857.784 902.43 841.479C891.177 820.267 816.801 745.992 772.588 711.811L739.352 686.117C738.75 685.652 738.347 684.976 738.223 684.226L734.616 662.389C729.694 632.568 718.889 611.737 697.454 590.72C680.634 574.23 629.283 540.507 626 543.791C625.1 544.691 622.794 554.338 620.875 565.234C611.228 620.005 642.946 679.278 696.138 705.892C708.672 712.162 721.837 717.294 725.395 717.294C728.952 717.294 742.183 725.603 754.794 735.757C790.14 764.217 866.367 840.04 873.321 853.655C876.743 860.352 883.052 882.85 887.342 903.652C891.631 924.453 900.253 963.889 906.497 991.287C912.741 1018.69 917.257 1041.7 916.531 1042.43C914.163 1044.79 842.003 989.429 818.278 967.047C786.744 937.298 760.322 897.042 749.011 861.513C740.318 834.219 730.267 829.356 708.833 810.836C694.464 798.417 681.314 788.257 679.618 788.257C674.622 788.257 671.277 816.19 671.509 855.994C671.858 915.693 687.636 962.257 730.213 1029.22C734.342 1035.71 732.313 1035.3 706.656 1024.38C668.5 1008.14 612.908 963.354 609.764 946.31C607.138 932.092 595.595 911.822 583.69 900.529C571.898 889.34 543.267 876.286 521.445 872.148C495.406 867.209 437.457 867.867 437.457 873.102C437.457 883.75 455.741 912.132 472.745 927.872C499.487 952.635 538.342 968.889 570.789 968.889C581.861 968.889 586.07 971.385 604.832 989.084C641.304 1023.49 665.272 1039.88 702.992 1056.22C767.031 1083.96 780.025 1092.26 804.906 1121.34C817.294 1135.82 826.886 1148.2 826.225 1148.87L861.023 1186.62L882.294 1210.81C993.681 1337.49 1064.7 1446.64 1093.97 1536.13C1096.95 1545.25 1100.41 1552.72 1101.66 1552.72C1102.91 1552.72 1108.87 1541.47 1114.91 1527.72C1139.17 1472.46 1183.84 1398.92 1212.56 1366.97C1224.88 1353.27 1228.12 1346.53 1235.23 1319.82C1255.99 1241.8 1288.3 1171.81 1347.65 1076.29C1369.7 1040.8 1371.87 1038.52 1468.95 948.881C1599.43 828.396 1611.46 816.832 1622.8 801.049C1628.1 793.666 1640.21 779.425 1649.7 769.397C1691.16 725.59 1711.46 676.097 1711.46 618.821C1711.46 587.542 1705.61 561.457 1695.91 549.477L1692.34 545.067C1691.17 543.618 1688.98 543.572 1687.74 544.97L1674.81 559.638C1623.6 617.711 1602.37 678.016 1611.19 740.351L1615.13 768.146C1615.26 769.062 1614.96 769.987 1614.32 770.654L1602.92 782.519C1596.1 789.628 1562.93 820.509 1529.23 851.149C1495.53 881.786 1457.48 917.038 1444.69 929.489L1434.24 939.659C1431.81 942.026 1427.92 939.184 1429.45 936.15L1433.82 927.444C1488.62 818.255 1508.52 717.378 1493.87 622.966C1488.24 586.665 1488.24 586.655 1495.34 568.918C1505.98 542.378 1507.37 508.558 1499.15 476.092C1492.26 448.833 1471.35 402.736 1458.63 386.792L1453.75 380.671C1452.57 379.187 1450.32 379.155 1449.1 380.605L1442.27 388.689Z" fill="white"/>
<path d="M1124.13 1884.87H1274.41L1291.11 1936.06H1107.43L1124.13 1884.87Z" fill="#4600E9"/>
<path d="M1149.9 1812.62H1260.51L1271.57 1845.74H1136.07L1149.9 1812.62Z" fill="#4600E9"/>
<path d="M1175.87 1746.37H1257.31L1270.04 1773.47H1163.14L1175.87 1746.37Z" fill="#4600E9"/>
<path d="M1199.32 1684.65H1267L1277.58 1707.23H1188.75L1199.32 1684.65Z" fill="#4600E9"/>
<path d="M1222.95 1628.93H1278.01L1286.61 1645.49H1214.34L1222.95 1628.93Z" fill="#4600E9"/>
<circle cx="1440.19" cy="1945.1" r="34.6283" fill="white"/>
</svg>
