<svg width="19" height="16" viewBox="0 0 19 16" fill="none" xmlns="http://www.w3.org/2000/svg">
<path d="M3.15039 0.0634766C3.22459 0.0674985 3.29732 0.0858998 3.36426 0.118164C3.39783 0.134356 3.42941 0.154386 3.45898 0.176758L3.54102 0.251953L16.04 14.002L16.041 14.0029C16.0917 14.0574 16.1314 14.1216 16.1572 14.1914C16.1829 14.261 16.1945 14.3351 16.1914 14.4092C16.1883 14.4835 16.1701 14.5567 16.1387 14.624C16.1071 14.6914 16.0629 14.7527 16.0078 14.8027C15.9527 14.8528 15.8875 14.8911 15.8174 14.916C15.7474 14.9409 15.6728 14.9522 15.5986 14.9482C15.5244 14.9442 15.4517 14.9249 15.3848 14.8926C15.3178 14.8602 15.2574 14.8154 15.208 14.7598V14.7588L13.4893 12.8672L13.459 12.834L13.418 12.8525C12.1449 13.4147 10.7667 13.7013 9.375 13.6934L8.87012 13.6807C6.36135 13.5604 4.08466 12.5419 2.25781 10.7158C0.798156 9.25604 0.140133 7.80023 0.111328 7.73535V7.73438C0.0794243 7.66251 0.0625 7.58449 0.0625 7.50586C0.0625652 7.42729 0.0794084 7.34914 0.111328 7.27734C0.165937 7.15405 1.38002 4.48739 4.19824 2.75781L4.2627 2.71875L4.21191 2.66309L2.70898 1.00879L2.70801 1.00781C2.65756 0.953528 2.61852 0.889802 2.59277 0.820312C2.56698 0.750508 2.55452 0.675914 2.55762 0.601562C2.56072 0.527205 2.57883 0.454135 2.61035 0.386719C2.64181 0.319442 2.68629 0.258981 2.74121 0.208984C2.7963 0.158923 2.86151 0.119687 2.93164 0.0947266C3.00166 0.0698628 3.0762 0.0594851 3.15039 0.0634766ZM4.99609 3.59375C2.81821 4.85142 1.64221 6.78541 1.27344 7.47656L1.25684 7.50586L1.27344 7.53516C1.75769 8.4241 2.36795 9.23856 3.08594 9.95215H3.08691C4.83741 11.6868 6.95357 12.5684 9.375 12.5684C10.4704 12.5744 11.5573 12.3758 12.5801 11.9834L12.666 11.9502L12.6045 11.8828L11.4531 10.6172L11.418 10.5781L11.373 10.6064C10.6398 11.0744 9.76459 11.2681 8.90234 11.1533C8.04024 11.0384 7.2463 10.6229 6.66113 9.97949C6.0759 9.33594 5.73675 8.50596 5.7041 7.63672C5.67152 6.76769 5.94733 5.91501 6.48242 5.22949L6.51562 5.1875L6.47949 5.14844L5.07324 3.60547L5.04004 3.56836L4.99609 3.59375ZM9.375 1.31836C12.0831 1.31836 14.5435 2.34724 16.4922 4.2959C17.9522 5.756 18.6101 7.21303 18.6387 7.27734C18.6706 7.34914 18.6874 7.42729 18.6875 7.50586C18.6875 7.57874 18.671 7.65039 18.6436 7.71777L18.6367 7.73438C18.6056 7.80406 17.8186 9.54799 16.0459 11.1357H16.0449C15.9901 11.1864 15.9256 11.2264 15.8555 11.252C15.7855 11.2774 15.7111 11.2887 15.6367 11.2852C15.5623 11.2816 15.4892 11.2634 15.4219 11.2314C15.3546 11.1994 15.2939 11.1541 15.2441 11.0986C15.1944 11.043 15.1563 10.9777 15.1318 10.9072C15.1074 10.8367 15.0968 10.762 15.1016 10.6875C15.1063 10.6131 15.1261 10.5404 15.1592 10.4736C15.1923 10.4068 15.2385 10.3467 15.2949 10.2979L15.2959 10.2969C16.1753 9.50676 16.914 8.57277 17.4805 7.53516L17.4971 7.50586L17.4805 7.47559C16.9951 6.58576 16.3827 5.77145 15.6631 5.05762C14.0219 3.43267 12.0595 2.5562 9.8252 2.45312L9.375 2.44336C8.86499 2.44274 8.35578 2.48363 7.85254 2.56641H7.85156C7.77839 2.57935 7.70338 2.57774 7.63086 2.56152C7.55837 2.5453 7.48938 2.51551 7.42871 2.47266C7.36804 2.42979 7.31685 2.37443 7.27734 2.31152C7.23791 2.24866 7.21146 2.17865 7.19922 2.10547C7.18696 2.03219 7.18917 1.95712 7.20605 1.88477C7.22295 1.81247 7.25348 1.74383 7.29688 1.68359C7.3403 1.62333 7.39572 1.57212 7.45898 1.5332C7.49052 1.51383 7.52405 1.49813 7.55859 1.48535L7.66602 1.45703C8.23072 1.36379 8.80265 1.31763 9.375 1.31836ZM7.23242 6.10059C6.92138 6.5756 6.77748 7.14101 6.82227 7.70703C6.86708 8.273 7.09862 8.80837 7.48047 9.22852C7.86224 9.64848 8.37271 9.92976 8.93164 10.0283C9.49072 10.1268 10.0669 10.0367 10.5693 9.77246L10.6416 9.73535L10.5869 9.6748L7.33105 6.09277L7.27734 6.0332L7.23242 6.10059ZM10.0664 3.88379C10.8496 4.03568 11.5629 4.43612 12.0996 5.02637C12.5694 5.54305 12.8817 6.18078 13.0039 6.86426L13.0449 7.15918C13.0588 7.3076 13.0131 7.45552 12.918 7.57031C12.8228 7.68516 12.6856 7.75759 12.5371 7.77148H12.4844C12.3438 7.77209 12.2076 7.71948 12.1035 7.625C11.9995 7.53055 11.9349 7.40062 11.9219 7.26074C11.868 6.71028 11.6377 6.19147 11.2656 5.78223C10.9399 5.42402 10.5202 5.16583 10.0566 5.03613L9.85547 4.98828C9.70892 4.9603 9.57897 4.87536 9.49512 4.75195C9.41145 4.6286 9.38026 4.4765 9.4082 4.33008C9.43625 4.18374 9.52131 4.05449 9.64453 3.9707C9.76796 3.88684 9.91983 3.85582 10.0664 3.88379Z" fill="currentColor" stroke="currentColor" stroke-width="0.125"/>
</svg>
