<svg width="18" height="22" viewBox="0 0 18 22" fill="none" xmlns="http://www.w3.org/2000/svg">
<path d="M17.0625 0H3.25C2.38805 0 1.5614 0.34241 0.951903 0.951903C0.34241 1.5614 0 2.38805 0 3.25V20.3125C0 20.528 0.0856026 20.7347 0.237976 20.887C0.390349 21.0394 0.597012 21.125 0.8125 21.125H15.4375C15.653 21.125 15.8597 21.0394 16.012 20.887C16.1644 20.7347 16.25 20.528 16.25 20.3125C16.25 20.097 16.1644 19.8903 16.012 19.738C15.8597 19.5856 15.653 19.5 15.4375 19.5H1.625C1.625 19.069 1.7962 18.6557 2.10095 18.351C2.4057 18.0462 2.81902 17.875 3.25 17.875H17.0625C17.278 17.875 17.4847 17.7894 17.637 17.637C17.7894 17.4847 17.875 17.278 17.875 17.0625V0.8125C17.875 0.597012 17.7894 0.390349 17.637 0.237976C17.4847 0.0856024 17.278 0 17.0625 0ZM8.125 1.625H13V8.9375L11.049 7.475C10.9083 7.36952 10.7373 7.3125 10.5615 7.3125C10.3857 7.3125 10.2146 7.36952 10.074 7.475L8.125 8.9375V1.625ZM16.25 16.25H3.25C2.67937 16.2492 2.1187 16.3995 1.625 16.6857V3.25C1.625 2.81902 1.7962 2.4057 2.10095 2.10095C2.4057 1.7962 2.81902 1.625 3.25 1.625H6.5V10.5625C6.5 10.7134 6.54202 10.8613 6.62135 10.9897C6.70067 11.118 6.81418 11.2217 6.94914 11.2892C7.0841 11.3567 7.23519 11.3853 7.38547 11.3717C7.53575 11.3582 7.67929 11.303 7.8 11.2125L10.5625 9.14062L13.326 11.2125C13.4664 11.3178 13.637 11.3748 13.8125 11.375C14.028 11.375 14.2347 11.2894 14.387 11.137C14.5394 10.9847 14.625 10.778 14.625 10.5625V1.625H16.25V16.25Z" fill="#141414"/>
</svg>
