<svg width="22" height="18" viewBox="0 0 22 18" fill="none" xmlns="http://www.w3.org/2000/svg">
<path d="M17.875 7.3125C17.875 7.52799 17.7894 7.73465 17.637 7.88702C17.4847 8.0394 17.278 8.125 17.0625 8.125H13C12.7845 8.125 12.5778 8.0394 12.4255 7.88702C12.2731 7.73465 12.1875 7.52799 12.1875 7.3125C12.1875 7.09701 12.2731 6.89035 12.4255 6.73798C12.5778 6.5856 12.7845 6.5 13 6.5H17.0625C17.278 6.5 17.4847 6.5856 17.637 6.73798C17.7894 6.89035 17.875 7.09701 17.875 7.3125ZM17.0625 9.75H13C12.7845 9.75 12.5778 9.8356 12.4255 9.98798C12.2731 10.1403 12.1875 10.347 12.1875 10.5625C12.1875 10.778 12.2731 10.9847 12.4255 11.137C12.5778 11.2894 12.7845 11.375 13 11.375H17.0625C17.278 11.375 17.4847 11.2894 17.637 11.137C17.7894 10.9847 17.875 10.778 17.875 10.5625C17.875 10.347 17.7894 10.1403 17.637 9.98798C17.4847 9.8356 17.278 9.75 17.0625 9.75ZM21.125 1.625V16.25C21.125 16.681 20.9538 17.0943 20.649 17.399C20.3443 17.7038 19.931 17.875 19.5 17.875H1.625C1.19402 17.875 0.780698 17.7038 0.475951 17.399C0.171205 17.0943 0 16.681 0 16.25V1.625C0 1.19402 0.171205 0.780698 0.475951 0.475951C0.780698 0.171205 1.19402 0 1.625 0H19.5C19.931 0 20.3443 0.171205 20.649 0.475951C20.9538 0.780698 21.125 1.19402 21.125 1.625ZM19.5 16.25V1.625H1.625V16.25H19.5ZM11.3486 12.7969C11.4025 13.0056 11.3712 13.2272 11.2617 13.4129C11.1522 13.5986 10.9734 13.7332 10.7646 13.7871C10.5559 13.841 10.3342 13.8097 10.1485 13.7002C9.96284 13.5907 9.82825 13.4119 9.77437 13.2031C9.50727 12.1611 8.44797 11.375 7.31148 11.375C6.175 11.375 5.11672 12.1611 4.84859 13.2031C4.79472 13.4119 4.66013 13.5907 4.47442 13.7002C4.28872 13.8097 4.06711 13.841 3.85836 13.7871C3.64961 13.7332 3.4708 13.5986 3.36128 13.4129C3.25176 13.2272 3.2205 13.0056 3.27438 12.7969C3.53803 11.8155 4.16127 10.9693 5.02023 10.4264C4.56378 9.97266 4.25233 9.3936 4.12536 8.76264C3.99838 8.13167 4.06161 7.47722 4.30703 6.88223C4.55244 6.28724 4.96899 5.77852 5.50387 5.42055C6.03875 5.06258 6.66787 4.87148 7.31148 4.87148C7.9551 4.87148 8.58422 5.06258 9.1191 5.42055C9.65398 5.77852 10.0705 6.28724 10.3159 6.88223C10.5614 7.47722 10.6246 8.13167 10.4976 8.76264C10.3706 9.3936 10.0592 9.97266 9.60273 10.4264C10.4626 10.9685 11.0864 11.815 11.3496 12.7969H11.3486ZM7.3125 9.75C7.63389 9.75 7.94807 9.6547 8.2153 9.47614C8.48253 9.29758 8.69081 9.04379 8.8138 8.74686C8.9368 8.44993 8.96898 8.1232 8.90628 7.80798C8.84358 7.49276 8.68881 7.20321 8.46155 6.97595C8.23429 6.74869 7.94474 6.59392 7.62952 6.53122C7.3143 6.46852 6.98757 6.5007 6.69064 6.6237C6.39371 6.74669 6.13992 6.95497 5.96136 7.2222C5.7828 7.48943 5.6875 7.80361 5.6875 8.125C5.6875 8.55598 5.85871 8.9693 6.16345 9.27405C6.4682 9.57879 6.88152 9.75 7.3125 9.75Z" fill="#343330"/>
</svg>
