<svg width="25" height="18" viewBox="0 0 25 18" fill="none" xmlns="http://www.w3.org/2000/svg">
<path d="M24.0503 10.3991C23.9649 10.4631 23.8678 10.5097 23.7645 10.5362C23.6611 10.5627 23.5535 10.5685 23.4479 10.5535C23.3423 10.5384 23.2407 10.5026 23.1488 10.4483C23.057 10.3939 22.9768 10.322 22.9128 10.2366C22.4231 9.57836 21.7857 9.04427 21.0518 8.67735C20.318 8.31043 19.5083 8.12094 18.6878 8.12412C18.528 8.12411 18.3718 8.07699 18.2387 7.98865C18.1055 7.90032 18.0014 7.77469 17.9393 7.62748C17.8971 7.52752 17.8754 7.42012 17.8754 7.31162C17.8754 7.20313 17.8971 7.09573 17.9393 6.99576C18.0014 6.84856 18.1055 6.72293 18.2387 6.63459C18.3718 6.54626 18.528 6.49914 18.6878 6.49912C19.1437 6.49908 19.5904 6.37119 19.9773 6.12999C20.3641 5.88878 20.6756 5.54391 20.8762 5.13457C21.0769 4.72523 21.1588 4.26781 21.1125 3.81428C21.0663 3.36075 20.8937 2.92928 20.6145 2.56888C20.3354 2.20848 19.9607 1.93361 19.5331 1.77547C19.1055 1.61733 18.6422 1.58227 18.1957 1.67428C17.7492 1.76628 17.3374 1.98166 17.0072 2.29595C16.6769 2.61024 16.4415 3.01084 16.3275 3.45225C16.3008 3.55561 16.254 3.65271 16.1898 3.738C16.1256 3.82329 16.0453 3.8951 15.9533 3.94932C15.8614 4.00355 15.7596 4.03914 15.6539 4.05405C15.5482 4.06896 15.4406 4.06291 15.3373 4.03623C15.2339 4.00956 15.1368 3.96278 15.0515 3.89858C14.9662 3.83438 14.8944 3.75401 14.8402 3.66206C14.786 3.57011 14.7504 3.46838 14.7355 3.36267C14.7205 3.25697 14.7266 3.14936 14.7533 3.046C14.9115 2.4339 15.2103 1.86716 15.6261 1.39089C16.0419 0.914613 16.563 0.541947 17.1482 0.302542C17.7333 0.063136 18.3662 -0.0364012 18.9966 0.0118496C19.627 0.0601005 20.2374 0.254808 20.7793 0.580479C21.3211 0.90615 21.7795 1.3538 22.118 1.8878C22.4564 2.4218 22.6655 3.02742 22.7287 3.65647C22.7919 4.28552 22.7074 4.92063 22.4819 5.51127C22.2565 6.10192 21.8963 6.63179 21.43 7.05873C22.5348 7.53709 23.4952 8.29618 24.2159 9.26061C24.2799 9.34618 24.3264 9.44355 24.3527 9.54712C24.379 9.6507 24.3847 9.75845 24.3693 9.86421C24.3539 9.96997 24.3178 10.0717 24.2631 10.1634C24.2084 10.2552 24.136 10.3353 24.0503 10.3991ZM18.5781 16.6554C18.6369 16.7478 18.6764 16.8513 18.6942 16.9594C18.712 17.0675 18.7077 17.1781 18.6816 17.2846C18.6555 17.391 18.6082 17.4911 18.5425 17.5787C18.4767 17.6664 18.3939 17.7399 18.2991 17.7947C18.2042 17.8495 18.0992 17.8846 17.9904 17.8978C17.8816 17.911 17.7713 17.9021 17.6661 17.8716C17.5608 17.8411 17.4628 17.7895 17.378 17.7202C17.2932 17.6508 17.2233 17.565 17.1725 17.4679C16.6607 16.6012 15.9317 15.883 15.0576 15.384C14.1834 14.8851 13.1943 14.6226 12.1878 14.6226C11.1813 14.6226 10.1922 14.8851 9.31803 15.384C8.44389 15.883 7.71495 16.6012 7.20312 17.4679C7.15233 17.565 7.08242 17.6508 6.9976 17.7202C6.91278 17.7895 6.8148 17.8411 6.70956 17.8716C6.60432 17.9021 6.49398 17.911 6.3852 17.8978C6.27642 17.8846 6.17144 17.8495 6.07657 17.7947C5.98169 17.7399 5.8989 17.6664 5.83315 17.5787C5.76741 17.4911 5.72008 17.391 5.69401 17.2846C5.66794 17.1781 5.66366 17.0675 5.68145 16.9594C5.69923 16.8513 5.73871 16.7478 5.7975 16.6554C6.58521 15.3019 7.78629 14.2368 9.22421 13.6166C8.41509 12.9971 7.82045 12.1397 7.52386 11.1647C7.22726 10.1898 7.24364 9.14644 7.57069 8.18131C7.89774 7.21617 8.51901 6.37779 9.34718 5.784C10.1753 5.19021 11.1688 4.87087 12.1878 4.87087C13.2069 4.87087 14.2003 5.19021 15.0284 5.784C15.8566 6.37779 16.4779 7.21617 16.8049 8.18131C17.132 9.14644 17.1484 10.1898 16.8518 11.1647C16.5552 12.1397 15.9605 12.9971 15.1514 13.6166C16.5893 14.2368 17.7904 15.3019 18.5781 16.6554ZM12.1878 12.9991C12.8306 12.9991 13.459 12.8085 13.9934 12.4514C14.5279 12.0943 14.9444 11.5867 15.1904 10.9928C15.4364 10.399 15.5008 9.74552 15.3754 9.11508C15.25 8.48464 14.9404 7.90555 14.4859 7.45103C14.0314 6.99651 13.4523 6.68697 12.8219 6.56157C12.1914 6.43617 11.5379 6.50053 10.9441 6.74651C10.3502 6.9925 9.84265 7.40906 9.48553 7.94352C9.12842 8.47798 8.93781 9.10633 8.93781 9.74912C8.93781 10.6111 9.28022 11.4377 9.88971 12.0472C10.4992 12.6567 11.3259 12.9991 12.1878 12.9991ZM6.50031 7.31162C6.50031 7.09613 6.41471 6.88947 6.26233 6.7371C6.10996 6.58473 5.9033 6.49912 5.68781 6.49912C5.23192 6.49908 4.78518 6.37119 4.39834 6.12999C4.01149 5.88878 3.70004 5.54391 3.49937 5.13457C3.2987 4.72523 3.21684 4.26781 3.2631 3.81428C3.30936 3.36075 3.48189 2.92928 3.76107 2.56888C4.04026 2.20848 4.41492 1.93361 4.8425 1.77547C5.27008 1.61733 5.73344 1.58227 6.17995 1.67428C6.62645 1.76628 7.03821 1.98166 7.36844 2.29595C7.69867 2.61024 7.93415 3.01084 8.04812 3.45225C8.10199 3.661 8.23659 3.83981 8.42229 3.94932C8.608 4.05884 8.8296 4.0901 9.03836 4.03623C9.24711 3.98236 9.42591 3.84777 9.53543 3.66206C9.64495 3.47636 9.67621 3.25475 9.62234 3.046C9.46415 2.4339 9.16528 1.86716 8.74952 1.39089C8.33376 0.914613 7.81258 0.541947 7.22745 0.302542C6.64232 0.063136 6.00938 -0.0364012 5.37902 0.0118496C4.74865 0.0601005 4.13824 0.254808 3.59636 0.580479C3.05448 0.90615 2.59609 1.3538 2.25766 1.8878C1.91923 2.4218 1.7101 3.02742 1.64691 3.65647C1.58372 4.28552 1.66822 4.92063 1.89368 5.51127C2.11914 6.10192 2.47934 6.63179 2.94562 7.05873C1.84192 7.53754 0.882596 8.2966 0.162808 9.26061C0.0333805 9.433 -0.0222644 9.64974 0.00811506 9.86316C0.0384945 10.0766 0.15241 10.2692 0.3248 10.3986C0.497191 10.528 0.713936 10.5837 0.927354 10.5533C1.14077 10.5229 1.33338 10.409 1.46281 10.2366C1.95253 9.57836 2.58996 9.04427 3.3238 8.67735C4.05763 8.31043 4.86736 8.12094 5.68781 8.12412C5.9033 8.12412 6.10996 8.03852 6.26233 7.88615C6.41471 7.73377 6.50031 7.52711 6.50031 7.31162Z" fill="#141414"/>
</svg>
