<svg width="25" height="18" viewBox="0 0 25 18" fill="none" xmlns="http://www.w3.org/2000/svg">
<path d="M1.625 13V1.625C1.625 1.19402 1.7962 0.780698 2.10095 0.475951C2.4057 0.171205 2.81902 0 3.25 0H21.125C21.556 0 21.9693 0.171205 22.274 0.475951C22.5788 0.780698 22.75 1.19402 22.75 1.625V13C22.75 13.2155 22.6644 13.4222 22.512 13.5745C22.3597 13.7269 22.153 13.8125 21.9375 13.8125C21.722 13.8125 21.5153 13.7269 21.363 13.5745C21.2106 13.4222 21.125 13.2155 21.125 13V1.625H3.25V13C3.25 13.2155 3.1644 13.4222 3.01202 13.5745C2.85965 13.7269 2.65299 13.8125 2.4375 13.8125C2.22201 13.8125 2.01535 13.7269 1.86298 13.5745C1.7106 13.4222 1.625 13.2155 1.625 13ZM24.375 16.25C24.375 16.4655 24.2894 16.6722 24.137 16.8245C23.9847 16.9769 23.778 17.0625 23.5625 17.0625H0.8125C0.597012 17.0625 0.390349 16.9769 0.237976 16.8245C0.0856024 16.6722 0 16.4655 0 16.25C0 16.0345 0.0856024 15.8278 0.237976 15.6755C0.390349 15.5231 0.597012 15.4375 0.8125 15.4375H10.5625V13C10.5625 12.7845 10.6481 12.5778 10.8005 12.4255C10.9528 12.2731 11.1595 12.1875 11.375 12.1875H17.875C18.0905 12.1875 18.2972 12.2731 18.4495 12.4255C18.6019 12.5778 18.6875 12.7845 18.6875 13V15.4375H23.5625C23.778 15.4375 23.9847 15.5231 24.137 15.6755C24.2894 15.8278 24.375 16.0345 24.375 16.25ZM12.1875 15.4375H17.0625V13.8125H12.1875V15.4375Z" fill="#343330"/>
</svg>
