<svg width="22" height="18" viewBox="0 0 22 18" fill="none" xmlns="http://www.w3.org/2000/svg">
<path d="M14.2634 6.63609L9.38844 3.38609C9.26605 3.30444 9.12378 3.25754 8.97682 3.25042C8.82986 3.2433 8.68372 3.27622 8.55401 3.34567C8.4243 3.41511 8.31588 3.51847 8.24032 3.64472C8.16476 3.77097 8.1249 3.91537 8.125 4.0625V10.5625C8.1249 10.7096 8.16476 10.854 8.24032 10.9803C8.31588 11.1065 8.4243 11.2099 8.55401 11.2793C8.68372 11.3488 8.82986 11.3817 8.97682 11.3746C9.12378 11.3675 9.26605 11.3206 9.38844 11.2389L14.2634 7.98891C14.3749 7.91474 14.4663 7.81418 14.5295 7.69618C14.5927 7.57817 14.6258 7.44637 14.6258 7.3125C14.6258 7.17863 14.5927 7.04683 14.5295 6.92882C14.4663 6.81082 14.3749 6.71026 14.2634 6.63609ZM9.75 9.04414V5.58594L12.348 7.3125L9.75 9.04414ZM19.5 0H1.625C1.19402 0 0.780698 0.171205 0.475951 0.475951C0.171205 0.780698 0 1.19402 0 1.625V13C0 13.431 0.171205 13.8443 0.475951 14.149C0.780698 14.4538 1.19402 14.625 1.625 14.625H19.5C19.931 14.625 20.3443 14.4538 20.649 14.149C20.9538 13.8443 21.125 13.431 21.125 13V1.625C21.125 1.19402 20.9538 0.780698 20.649 0.475951C20.3443 0.171205 19.931 0 19.5 0ZM19.5 13H1.625V1.625H19.5V13ZM21.125 17.0625C21.125 17.278 21.0394 17.4847 20.887 17.637C20.7347 17.7894 20.528 17.875 20.3125 17.875H0.8125C0.597012 17.875 0.390349 17.7894 0.237976 17.637C0.0856024 17.4847 0 17.278 0 17.0625C0 16.847 0.0856024 16.6403 0.237976 16.488C0.390349 16.3356 0.597012 16.25 0.8125 16.25H20.3125C20.528 16.25 20.7347 16.3356 20.887 16.488C21.0394 16.6403 21.125 16.847 21.125 17.0625Z" fill="#343330"/>
</svg>
