<svg viewBox="0 0 28 28" fill="none" xmlns="http://www.w3.org/2000/svg">
<rect x="0" y="0" width="28" height="28" rx="14" fill="white"/>
<path d="M14.0188 14.0002C14.0188 12.5274 15.2127 11.3335 16.6855 11.3335C18.1582 11.3335 19.3521 12.5274 19.3521 14.0002C19.3521 15.4729 18.1582 16.6668 16.6855 16.6668C15.2127 16.6668 14.0188 15.4729 14.0188 14.0002Z" fill="#00BCFF"/>
<path d="M8.6853 19.3334C8.6853 17.8607 9.87921 16.6668 11.352 16.6668L12.7731 15.9165L14.0186 16.6668V19.3334C14.0186 20.8062 12.8247 22.0001 11.352 22.0001C9.87921 22.0001 8.6853 20.8062 8.6853 19.3334Z" fill="#00CF7F"/>
<path d="M14.0187 6L12.5676 8.52094L14.0187 11.3333H16.6479C18.1207 11.3333 19.3146 10.1394 19.3146 8.66666C19.3146 7.19391 18.1207 6 16.6479 6H14.0187Z" fill="#FF7361"/>
<path d="M8.64795 8.66666C8.64795 10.1394 9.84186 11.3333 11.3146 11.3333L12.7292 11.8797L14.0187 11.3333V6H11.3146C9.84186 6 8.64795 7.19391 8.64795 8.66666Z" fill="#FF4D12"/>
<path d="M8.6853 14.0002C8.6853 15.473 9.87921 16.6668 11.352 16.6668H14.0186V11.3335H11.352C9.87921 11.3335 8.6853 12.5274 8.6853 14.0002Z" fill="#B659FF"/>
</svg>
