<svg viewBox="0 0 28 28" fill="none" xmlns="http://www.w3.org/2000/svg">
<path d="M14.0251 0.10498C6.30845 0.10498 0.0510254 6.46792 0.0510254 14.3176C0.0510254 20.5973 4.05503 25.9249 9.60736 27.8042C10.3057 27.9358 10.5621 27.4959 10.5621 27.1205C10.5621 26.7816 10.5492 25.662 10.5432 24.4743C6.65556 25.3341 5.83522 22.7974 5.83522 22.7974C5.19955 21.1546 4.28365 20.7178 4.28365 20.7178C3.01579 19.8356 4.37922 19.8538 4.37922 19.8538C5.78246 19.9538 6.52134 21.3184 6.52134 21.3184C7.76769 23.4912 9.7904 22.8631 10.5878 22.4999C10.7132 21.5815 11.0754 20.9541 11.475 20.5994C8.37119 20.24 5.10838 19.0213 5.10838 13.5753C5.10838 12.0236 5.65427 10.7557 6.54818 9.76037C6.40309 9.40215 5.92478 7.95681 6.68355 5.99909C6.68355 5.99909 7.85701 5.6171 10.5274 7.45596C11.6421 7.14105 12.8375 6.98313 14.0251 6.97771C15.2127 6.98313 16.409 7.14105 17.5258 7.45596C20.193 5.6171 21.3648 5.99909 21.3648 5.99909C22.1254 7.95681 21.6469 9.40215 21.5018 9.76037C22.3978 10.7557 22.94 12.0236 22.94 13.5753C22.94 19.0342 19.6709 20.2362 16.5592 20.5881C17.0604 21.0291 17.5071 21.8941 17.5071 23.2201C17.5071 25.1216 17.4909 26.6521 17.4909 27.1205C17.4909 27.4987 17.7424 27.9419 18.4507 27.8023C24.0001 25.9209 27.999 20.5951 27.999 14.3176C27.999 6.46792 21.7425 0.10498 14.0251 0.10498Z" fill="white"/>
<path d="M5.34373 20.5115C5.31295 20.5823 5.20373 20.6033 5.10422 20.5548C5.00287 20.5084 4.94594 20.4121 4.9788 20.3413C5.00888 20.2686 5.11834 20.2486 5.21946 20.2968C5.32105 20.3434 5.3789 20.4406 5.34373 20.5115Z" fill="white"/>
<path d="M5.90964 21.1534C5.84299 21.2162 5.71271 21.187 5.62431 21.0877C5.53291 20.9886 5.51578 20.8561 5.58335 20.7923C5.65208 20.7295 5.77843 20.7589 5.87007 20.858C5.96147 20.9583 5.97929 21.0898 5.90964 21.1534Z" fill="white"/>
<path d="M6.46062 21.972C6.375 22.0325 6.235 21.9758 6.14846 21.8494C6.06284 21.723 6.06284 21.5714 6.15031 21.5107C6.23709 21.45 6.375 21.5046 6.46271 21.63C6.54809 21.7583 6.54809 21.9101 6.46062 21.972Z" fill="white"/>
<path d="M7.21553 22.763C7.13894 22.8489 6.9758 22.8259 6.85639 22.7087C6.73421 22.594 6.70019 22.4314 6.77702 22.3455C6.85454 22.2594 7.01861 22.2836 7.13894 22.3999C7.26019 22.5143 7.29722 22.6781 7.21553 22.763Z" fill="white"/>
<path d="M8.2569 23.2221C8.22311 23.3334 8.06599 23.384 7.90771 23.3367C7.74966 23.288 7.64622 23.1576 7.67815 23.0451C7.71101 22.933 7.86883 22.8803 8.02827 22.9309C8.18609 22.9794 8.28976 23.1088 8.2569 23.2221Z" fill="white"/>
<path d="M9.40054 23.307C9.40448 23.4243 9.27026 23.5215 9.10411 23.5233C8.93704 23.5273 8.8019 23.4325 8.80005 23.3172C8.80005 23.1988 8.93126 23.1025 9.09833 23.0997C9.26448 23.0964 9.40054 23.1905 9.40054 23.307Z" fill="white"/>
<path d="M10.4647 23.123C10.4846 23.2373 10.3691 23.3548 10.2041 23.3859C10.0419 23.4162 9.89174 23.3456 9.87114 23.2322C9.85101 23.115 9.96856 22.9975 10.1305 22.9672C10.2958 22.938 10.4436 23.0067 10.4647 23.123Z" fill="white"/>
</svg>
