<svg width="185" height="228" viewBox="0 0 185 228" fill="none" xmlns="http://www.w3.org/2000/svg">
<rect width="185" height="228" rx="92.5" fill="#F0E7FF"/>
<path d="M43.8 108.6C41.96 108.6 40.3333 108.233 38.92 107.5C37.5067 106.753 36.4 105.72 35.6 104.4C34.8 103.08 34.4 101.54 34.4 99.78C34.4 98.06 34.8067 96.5067 35.62 95.12C36.4467 93.7333 37.6867 92.6667 39.34 91.92L39.28 93.22C37.9333 92.5667 36.9 91.6467 36.18 90.46C35.46 89.26 35.1 87.9333 35.1 86.48C35.1 84.8533 35.4733 83.4533 36.22 82.28C36.9667 81.1067 37.9933 80.2 39.3 79.56C40.6067 78.92 42.1067 78.6 43.8 78.6C45.4933 78.6 46.9933 78.92 48.3 79.56C49.6067 80.2 50.6333 81.1067 51.38 82.28C52.1267 83.4533 52.5 84.8533 52.5 86.48C52.5 87.9333 52.16 89.2533 51.48 90.44C50.8 91.6133 49.7533 92.54 48.34 93.22L48.26 91.94C49.9133 92.66 51.1533 93.72 51.98 95.12C52.82 96.5067 53.24 98.06 53.24 99.78C53.24 101.54 52.8333 103.08 52.02 104.4C51.22 105.72 50.1067 106.753 48.68 107.5C47.2667 108.233 45.64 108.6 43.8 108.6ZM43.8 105.2C45.48 105.2 46.84 104.74 47.88 103.82C48.9333 102.887 49.46 101.54 49.46 99.78C49.46 98.0067 48.94 96.66 47.9 95.74C46.8733 94.8067 45.5067 94.34 43.8 94.34C42.1067 94.34 40.74 94.8067 39.7 95.74C38.6733 96.66 38.16 98.0067 38.16 99.78C38.16 101.54 38.68 102.887 39.72 103.82C40.76 104.74 42.12 105.2 43.8 105.2ZM43.8 90.92C45.2667 90.92 46.4533 90.5533 47.36 89.82C48.2667 89.0733 48.72 87.96 48.72 86.48C48.72 85 48.2667 83.8933 47.36 83.16C46.4533 82.4133 45.2667 82.04 43.8 82.04C42.3467 82.04 41.16 82.4133 40.24 83.16C39.3333 83.8933 38.88 85 38.88 86.48C38.88 87.96 39.3333 89.0733 40.24 89.82C41.16 90.5533 42.3467 90.92 43.8 90.92ZM68.1528 108.6C66.2861 108.6 64.6195 108.18 63.1528 107.34C61.6995 106.487 60.5461 105.333 59.6928 103.88C58.8528 102.413 58.4328 100.747 58.4328 98.88V88.32C58.4328 86.4533 58.8528 84.7867 59.6928 83.32C60.5461 81.8533 61.6995 80.7 63.1528 79.86C64.6195 79.02 66.2861 78.6 68.1528 78.6C70.0195 78.6 71.6861 79.02 73.1528 79.86C74.6195 80.7 75.7728 81.8533 76.6128 83.32C77.4528 84.7867 77.8728 86.4533 77.8728 88.32V98.88C77.8728 100.747 77.4528 102.413 76.6128 103.88C75.7728 105.333 74.6195 106.487 73.1528 107.34C71.6861 108.18 70.0195 108.6 68.1528 108.6ZM68.1528 105.18C69.2861 105.18 70.3128 104.907 71.2328 104.36C72.1528 103.813 72.8861 103.08 73.4328 102.16C73.9795 101.227 74.2528 100.2 74.2528 99.08V88.1C74.2528 86.9667 73.9795 85.94 73.4328 85.02C72.8861 84.1 72.1528 83.3667 71.2328 82.82C70.3128 82.2733 69.2861 82 68.1528 82C67.0328 82 66.0061 82.2733 65.0728 82.82C64.1528 83.3667 63.4195 84.1 62.8728 85.02C62.3261 85.94 62.0528 86.9667 62.0528 88.1V99.08C62.0528 100.2 62.3261 101.227 62.8728 102.16C63.4195 103.08 64.1528 103.813 65.0728 104.36C66.0061 104.907 67.0328 105.18 68.1528 105.18ZM86.6719 108L84.2719 105.6L110.712 79.2L113.112 81.6L86.6719 108ZM107.112 108.6C105.792 108.6 104.585 108.28 103.492 107.64C102.412 106.987 101.545 106.12 100.892 105.04C100.239 103.947 99.9119 102.733 99.9119 101.4C99.9119 100.093 100.245 98.8933 100.912 97.8C101.579 96.7067 102.459 95.8333 103.552 95.18C104.645 94.5267 105.832 94.2 107.112 94.2C108.432 94.2 109.639 94.5267 110.732 95.18C111.825 95.82 112.692 96.6867 113.332 97.78C113.985 98.86 114.312 100.067 114.312 101.4C114.312 102.733 113.985 103.947 113.332 105.04C112.692 106.12 111.825 106.987 110.732 107.64C109.639 108.28 108.432 108.6 107.112 108.6ZM107.112 105.46C107.845 105.46 108.519 105.273 109.132 104.9C109.759 104.527 110.252 104.033 110.612 103.42C110.985 102.807 111.172 102.133 111.172 101.4C111.172 100.667 110.985 99.9933 110.612 99.38C110.252 98.7533 109.759 98.26 109.132 97.9C108.519 97.5267 107.845 97.34 107.112 97.34C106.379 97.34 105.705 97.5267 105.092 97.9C104.479 98.26 103.985 98.7533 103.612 99.38C103.239 99.9933 103.052 100.667 103.052 101.4C103.052 102.133 103.239 102.807 103.612 103.42C103.985 104.033 104.479 104.527 105.092 104.9C105.705 105.273 106.379 105.46 107.112 105.46ZM90.2719 93C88.9519 93 87.7452 92.68 86.6519 92.04C85.5585 91.3867 84.6852 90.52 84.0319 89.44C83.3919 88.3467 83.0719 87.1333 83.0719 85.8C83.0719 84.4933 83.4052 83.2933 84.0719 82.2C84.7385 81.1067 85.6185 80.2333 86.7119 79.58C87.8052 78.9267 88.9919 78.6 90.2719 78.6C91.5919 78.6 92.7919 78.9267 93.8719 79.58C94.9652 80.22 95.8385 81.0867 96.4919 82.18C97.1452 83.26 97.4719 84.4667 97.4719 85.8C97.4719 87.1333 97.1452 88.3467 96.4919 89.44C95.8385 90.52 94.9652 91.3867 93.8719 92.04C92.7919 92.68 91.5919 93 90.2719 93ZM90.2719 89.86C91.0052 89.86 91.6785 89.6733 92.2919 89.3C92.9185 88.9267 93.4119 88.4333 93.7719 87.82C94.1452 87.2067 94.3319 86.5333 94.3319 85.8C94.3319 85.0667 94.1452 84.3933 93.7719 83.78C93.4119 83.1533 92.9185 82.66 92.2919 82.3C91.6785 81.9267 91.0052 81.74 90.2719 81.74C89.5385 81.74 88.8652 81.9267 88.2519 82.3C87.6385 82.66 87.1452 83.1533 86.7719 83.78C86.3985 84.3933 86.2119 85.0667 86.2119 85.8C86.2119 86.5333 86.3985 87.2067 86.7719 87.82C87.1452 88.4333 87.6385 88.9267 88.2519 89.3C88.8652 89.6733 89.5385 89.86 90.2719 89.86Z" fill="#141414"/>
<path d="M37 133.24C36.2053 133.24 35.5333 133.04 34.984 132.64C34.4347 132.235 34.0187 131.688 33.736 131C33.4533 130.307 33.312 129.531 33.312 128.672C33.312 127.797 33.4533 127.019 33.736 126.336C34.024 125.648 34.4453 125.107 35 124.712C35.5547 124.317 36.2373 124.12 37.048 124.12C37.8373 124.12 38.5147 124.32 39.08 124.72C39.6453 125.12 40.0773 125.664 40.376 126.352C40.68 127.04 40.832 127.813 40.832 128.672C40.832 129.536 40.68 130.312 40.376 131C40.072 131.688 39.6347 132.235 39.064 132.64C38.4933 133.04 37.8053 133.24 37 133.24ZM33.112 136.84V124.36H34.168V130.864H34.296V136.84H33.112ZM36.88 132.144C37.4827 132.144 37.984 131.992 38.384 131.688C38.784 131.384 39.0827 130.971 39.28 130.448C39.4827 129.92 39.584 129.328 39.584 128.672C39.584 128.021 39.4853 127.435 39.288 126.912C39.0907 126.389 38.7893 125.976 38.384 125.672C37.984 125.368 37.4747 125.216 36.856 125.216C36.2533 125.216 35.752 125.363 35.352 125.656C34.9573 125.949 34.6613 126.357 34.464 126.88C34.2667 127.397 34.168 127.995 34.168 128.672C34.168 129.339 34.2667 129.936 34.464 130.464C34.6613 130.987 34.96 131.397 35.36 131.696C35.76 131.995 36.2667 132.144 36.88 132.144ZM45.0608 133.24C44.4101 133.24 43.8634 133.123 43.4208 132.888C42.9834 132.653 42.6554 132.341 42.4368 131.952C42.2181 131.563 42.1088 131.139 42.1088 130.68C42.1088 130.211 42.2021 129.811 42.3888 129.48C42.5808 129.144 42.8394 128.869 43.1648 128.656C43.4954 128.443 43.8768 128.28 44.3088 128.168C44.7461 128.061 45.2288 127.968 45.7568 127.888C46.2901 127.803 46.8101 127.731 47.3168 127.672C47.8288 127.608 48.2768 127.547 48.6608 127.488L48.2448 127.744C48.2608 126.891 48.0954 126.259 47.7488 125.848C47.4021 125.437 46.7994 125.232 45.9408 125.232C45.3488 125.232 44.8474 125.365 44.4368 125.632C44.0314 125.899 43.7461 126.32 43.5807 126.896L42.4368 126.56C42.6341 125.787 43.0314 125.187 43.6288 124.76C44.2261 124.333 45.0021 124.12 45.9568 124.12C46.7461 124.12 47.4154 124.269 47.9648 124.568C48.5194 124.861 48.9114 125.288 49.1408 125.848C49.2474 126.099 49.3168 126.379 49.3488 126.688C49.3808 126.997 49.3968 127.312 49.3968 127.632V133H48.3488V130.832L48.6528 130.96C48.3594 131.701 47.9034 132.267 47.2848 132.656C46.6661 133.045 45.9248 133.24 45.0608 133.24ZM45.1968 132.224C45.7461 132.224 46.2261 132.125 46.6368 131.928C47.0474 131.731 47.3781 131.461 47.6288 131.12C47.8794 130.773 48.0421 130.384 48.1168 129.952C48.1808 129.675 48.2154 129.371 48.2208 129.04C48.2261 128.704 48.2288 128.453 48.2288 128.288L48.6768 128.52C48.2768 128.573 47.8421 128.627 47.3728 128.68C46.9088 128.733 46.4501 128.795 45.9968 128.864C45.5488 128.933 45.1434 129.016 44.7808 129.112C44.5354 129.181 44.2981 129.28 44.0688 129.408C43.8394 129.531 43.6501 129.696 43.5008 129.904C43.3568 130.112 43.2848 130.371 43.2848 130.68C43.2848 130.931 43.3461 131.173 43.4688 131.408C43.5968 131.643 43.7994 131.837 44.0768 131.992C44.3594 132.147 44.7328 132.224 45.1968 132.224ZM54.5914 133.24C53.722 133.24 52.962 133.051 52.3114 132.672C51.666 132.288 51.1567 131.757 50.7834 131.08L51.7274 130.48C52.042 131.013 52.434 131.419 52.9034 131.696C53.3727 131.973 53.9114 132.112 54.5194 132.112C55.154 132.112 55.6634 131.965 56.0474 131.672C56.4314 131.379 56.6234 130.976 56.6234 130.464C56.6234 130.112 56.5407 129.832 56.3754 129.624C56.2154 129.416 55.97 129.267 55.6394 129.176C55.314 129.085 54.906 129.04 54.4154 129.04H53.3914V128.032H54.3994C54.9967 128.032 55.4767 127.925 55.8394 127.712C56.2074 127.493 56.3914 127.152 56.3914 126.688C56.3914 126.197 56.2074 125.835 55.8394 125.6C55.4767 125.36 55.042 125.24 54.5354 125.24C54.0234 125.24 53.538 125.347 53.0794 125.56C52.626 125.768 52.2447 126.037 51.9354 126.368L51.1834 125.576C51.6154 125.101 52.1194 124.741 52.6954 124.496C53.2767 124.245 53.9194 124.12 54.6234 124.12C55.178 124.12 55.6794 124.219 56.1274 124.416C56.5807 124.608 56.938 124.891 57.1994 125.264C57.466 125.637 57.5994 126.085 57.5994 126.608C57.5994 127.099 57.4794 127.523 57.2394 127.88C57.0047 128.237 56.6714 128.533 56.2394 128.768L56.1754 128.328C56.5487 128.397 56.858 128.547 57.1034 128.776C57.3487 129.005 57.53 129.28 57.6474 129.6C57.7647 129.92 57.8234 130.245 57.8234 130.576C57.8234 131.125 57.6794 131.6 57.3914 132C57.1087 132.395 56.722 132.701 56.2314 132.92C55.746 133.133 55.1994 133.24 54.5914 133.24ZM63.4688 133.24C62.6741 133.24 62.0021 133.04 61.4528 132.64C60.9034 132.235 60.4874 131.688 60.2048 131C59.9221 130.307 59.7808 129.531 59.7808 128.672C59.7808 127.797 59.9221 127.019 60.2048 126.336C60.4928 125.648 60.9141 125.107 61.4688 124.712C62.0234 124.317 62.7061 124.12 63.5168 124.12C64.3061 124.12 64.9834 124.32 65.5488 124.72C66.1141 125.12 66.5461 125.664 66.8448 126.352C67.1488 127.04 67.3008 127.813 67.3008 128.672C67.3008 129.536 67.1488 130.312 66.8448 131C66.5408 131.688 66.1034 132.235 65.5328 132.64C64.9621 133.04 64.2741 133.24 63.4688 133.24ZM59.5808 136.84V124.36H60.6368V130.864H60.7648V136.84H59.5808ZM63.3488 132.144C63.9514 132.144 64.4528 131.992 64.8528 131.688C65.2528 131.384 65.5514 130.971 65.7488 130.448C65.9514 129.92 66.0528 129.328 66.0528 128.672C66.0528 128.021 65.9541 127.435 65.7568 126.912C65.5594 126.389 65.2581 125.976 64.8528 125.672C64.4528 125.368 63.9434 125.216 63.3248 125.216C62.7221 125.216 62.2208 125.363 61.8208 125.656C61.4261 125.949 61.1301 126.357 60.9328 126.88C60.7354 127.397 60.6368 127.995 60.6368 128.672C60.6368 129.339 60.7354 129.936 60.9328 130.464C61.1301 130.987 61.4288 131.397 61.8288 131.696C62.2288 131.995 62.7354 132.144 63.3488 132.144ZM71.5295 133.24C70.8788 133.24 70.3322 133.123 69.8895 132.888C69.4522 132.653 69.1242 132.341 68.9055 131.952C68.6868 131.563 68.5775 131.139 68.5775 130.68C68.5775 130.211 68.6708 129.811 68.8575 129.48C69.0495 129.144 69.3082 128.869 69.6335 128.656C69.9642 128.443 70.3455 128.28 70.7775 128.168C71.2148 128.061 71.6975 127.968 72.2255 127.888C72.7588 127.803 73.2788 127.731 73.7855 127.672C74.2975 127.608 74.7455 127.547 75.1295 127.488L74.7135 127.744C74.7295 126.891 74.5642 126.259 74.2175 125.848C73.8708 125.437 73.2682 125.232 72.4095 125.232C71.8175 125.232 71.3162 125.365 70.9055 125.632C70.5002 125.899 70.2148 126.32 70.0495 126.896L68.9055 126.56C69.1028 125.787 69.5002 125.187 70.0975 124.76C70.6948 124.333 71.4708 124.12 72.4255 124.12C73.2148 124.12 73.8842 124.269 74.4335 124.568C74.9882 124.861 75.3802 125.288 75.6095 125.848C75.7162 126.099 75.7855 126.379 75.8175 126.688C75.8495 126.997 75.8655 127.312 75.8655 127.632V133H74.8175V130.832L75.1215 130.96C74.8282 131.701 74.3722 132.267 73.7535 132.656C73.1348 133.045 72.3935 133.24 71.5295 133.24ZM71.6655 132.224C72.2148 132.224 72.6948 132.125 73.1055 131.928C73.5162 131.731 73.8468 131.461 74.0975 131.12C74.3482 130.773 74.5108 130.384 74.5855 129.952C74.6495 129.675 74.6842 129.371 74.6895 129.04C74.6948 128.704 74.6975 128.453 74.6975 128.288L75.1455 128.52C74.7455 128.573 74.3108 128.627 73.8415 128.68C73.3775 128.733 72.9188 128.795 72.4655 128.864C72.0175 128.933 71.6122 129.016 71.2495 129.112C71.0042 129.181 70.7668 129.28 70.5375 129.408C70.3082 129.531 70.1188 129.696 69.9695 129.904C69.8255 130.112 69.7535 130.371 69.7535 130.68C69.7535 130.931 69.8148 131.173 69.9375 131.408C70.0655 131.643 70.2682 131.837 70.5455 131.992C70.8282 132.147 71.2015 132.224 71.6655 132.224ZM81.4121 133.248C80.6068 133.243 79.9161 133.067 79.3401 132.72C78.7641 132.373 78.3161 131.856 77.9961 131.168C77.6815 130.48 77.5108 129.621 77.4841 128.592C77.4681 128.139 77.4788 127.645 77.5161 127.112C77.5535 126.573 77.6121 126.061 77.6921 125.576C77.7721 125.091 77.8681 124.696 77.9801 124.392C78.1188 123.997 78.3161 123.629 78.5721 123.288C78.8335 122.941 79.1348 122.659 79.4761 122.44C79.8068 122.216 80.1801 122.043 80.5961 121.92C81.0175 121.792 81.4548 121.693 81.9081 121.624C82.3668 121.555 82.8201 121.493 83.2681 121.44C83.7215 121.387 84.1401 121.32 84.5241 121.24L84.6521 122.304C84.3588 122.363 84.0121 122.416 83.6121 122.464C83.2121 122.512 82.7935 122.571 82.3561 122.64C81.9188 122.704 81.5001 122.792 81.1001 122.904C80.7001 123.016 80.3588 123.163 80.0761 123.344C79.6441 123.605 79.3108 124 79.0761 124.528C78.8468 125.056 78.7055 125.661 78.6521 126.344C78.9828 125.827 79.4201 125.437 79.9641 125.176C80.5135 124.915 81.1081 124.784 81.7481 124.784C82.5268 124.784 83.1961 124.963 83.7561 125.32C84.3215 125.677 84.7561 126.173 85.0601 126.808C85.3641 127.443 85.5161 128.171 85.5161 128.992C85.5161 129.851 85.3481 130.6 85.0121 131.24C84.6815 131.88 84.2095 132.376 83.5961 132.728C82.9828 133.075 82.2548 133.248 81.4121 133.248ZM81.5001 132.12C82.4068 132.12 83.0948 131.837 83.5641 131.272C84.0388 130.707 84.2761 129.955 84.2761 129.016C84.2761 128.056 84.0308 127.299 83.5401 126.744C83.0548 126.189 82.3695 125.912 81.4841 125.912C80.5988 125.912 79.9188 126.189 79.4441 126.744C78.9695 127.299 78.7321 128.056 78.7321 129.016C78.7321 129.976 78.9695 130.733 79.4441 131.288C79.9188 131.843 80.6041 132.12 81.5001 132.12ZM90.8843 133.24C90.0256 133.24 89.2923 133.045 88.6843 132.656C88.0763 132.267 87.6096 131.728 87.2843 131.04C86.9589 130.352 86.7963 129.563 86.7963 128.672C86.7963 127.765 86.9616 126.971 87.2923 126.288C87.6229 125.605 88.0923 125.075 88.7003 124.696C89.3136 124.312 90.0416 124.12 90.8843 124.12C91.7483 124.12 92.4843 124.315 93.0923 124.704C93.7056 125.088 94.1723 125.624 94.4923 126.312C94.8176 126.995 94.9803 127.781 94.9803 128.672C94.9803 129.579 94.8176 130.376 94.4923 131.064C94.1669 131.747 93.6976 132.28 93.0843 132.664C92.4709 133.048 91.7376 133.24 90.8843 133.24ZM90.8843 132.112C91.8443 132.112 92.5589 131.795 93.0283 131.16C93.4976 130.52 93.7323 129.691 93.7323 128.672C93.7323 127.627 93.4949 126.795 93.0203 126.176C92.5509 125.557 91.8389 125.248 90.8843 125.248C90.2389 125.248 89.7056 125.395 89.2843 125.688C88.8683 125.976 88.5563 126.379 88.3483 126.896C88.1456 127.408 88.0443 128 88.0443 128.672C88.0443 129.712 88.2843 130.547 88.7643 131.176C89.2443 131.8 89.9509 132.112 90.8843 132.112ZM98.8859 133V125.448H95.8219V124.36H103.126V125.448H100.062V133H98.8859ZM109.939 133V129.784C109.651 129.928 109.297 130.053 108.875 130.16C108.454 130.267 108.001 130.32 107.515 130.32C106.641 130.32 105.931 130.125 105.387 129.736C104.843 129.347 104.489 128.784 104.323 128.048C104.27 127.829 104.233 127.597 104.211 127.352C104.195 127.107 104.185 126.885 104.179 126.688C104.174 126.491 104.171 126.349 104.171 126.264V124.36H105.355V126.264C105.355 126.44 105.361 126.64 105.371 126.864C105.382 127.088 105.406 127.307 105.443 127.52C105.55 128.101 105.79 128.541 106.163 128.84C106.542 129.139 107.073 129.288 107.755 129.288C108.182 129.288 108.585 129.235 108.963 129.128C109.347 129.016 109.673 128.867 109.939 128.68V124.36H111.115V133H109.939ZM120.218 124.36V133H119.074V126.272L114.338 133H113.346V124.36H114.49V131.032L119.234 124.36H120.218ZM122.456 133L122.464 124.36H123.648V128.52L127.504 124.36H129.072L125.024 128.68L129.6 133H127.888L123.648 128.84V133H122.456ZM133.853 133.24C132.994 133.24 132.261 133.045 131.653 132.656C131.045 132.267 130.578 131.728 130.253 131.04C129.928 130.352 129.765 129.563 129.765 128.672C129.765 127.765 129.93 126.971 130.261 126.288C130.592 125.605 131.061 125.075 131.669 124.696C132.282 124.312 133.01 124.12 133.853 124.12C134.717 124.12 135.453 124.315 136.061 124.704C136.674 125.088 137.141 125.624 137.461 126.312C137.786 126.995 137.949 127.781 137.949 128.672C137.949 129.579 137.786 130.376 137.461 131.064C137.136 131.747 136.666 132.28 136.053 132.664C135.44 133.048 134.706 133.24 133.853 133.24ZM133.853 132.112C134.813 132.112 135.528 131.795 135.997 131.16C136.466 130.52 136.701 129.691 136.701 128.672C136.701 127.627 136.464 126.795 135.989 126.176C135.52 125.557 134.808 125.248 133.853 125.248C133.208 125.248 132.674 125.395 132.253 125.688C131.837 125.976 131.525 126.379 131.317 126.896C131.114 127.408 131.013 128 131.013 128.672C131.013 129.712 131.253 130.547 131.733 131.176C132.213 131.8 132.92 132.112 133.853 132.112ZM139.706 133V124.36H143.266C143.447 124.36 143.666 124.371 143.922 124.392C144.183 124.413 144.426 124.453 144.65 124.512C145.135 124.64 145.524 124.901 145.818 125.296C146.116 125.691 146.266 126.165 146.266 126.72C146.266 127.029 146.218 127.307 146.122 127.552C146.031 127.792 145.9 128 145.73 128.176C145.65 128.267 145.562 128.347 145.466 128.416C145.37 128.48 145.276 128.533 145.186 128.576C145.356 128.608 145.54 128.683 145.738 128.8C146.047 128.981 146.282 129.227 146.442 129.536C146.602 129.84 146.682 130.211 146.682 130.648C146.682 131.24 146.54 131.723 146.258 132.096C145.975 132.469 145.596 132.725 145.122 132.864C144.908 132.923 144.676 132.96 144.426 132.976C144.18 132.992 143.948 133 143.73 133H139.706ZM140.89 132H143.674C143.786 132 143.927 131.992 144.098 131.976C144.268 131.955 144.42 131.928 144.554 131.896C144.868 131.816 145.098 131.656 145.242 131.416C145.391 131.171 145.466 130.904 145.466 130.616C145.466 130.237 145.354 129.928 145.13 129.688C144.911 129.443 144.618 129.293 144.25 129.24C144.127 129.213 143.999 129.197 143.866 129.192C143.732 129.187 143.612 129.184 143.506 129.184H140.89V132ZM140.89 128.176H143.306C143.444 128.176 143.599 128.168 143.77 128.152C143.946 128.131 144.098 128.096 144.226 128.048C144.503 127.952 144.706 127.787 144.834 127.552C144.967 127.317 145.034 127.061 145.034 126.784C145.034 126.48 144.962 126.213 144.818 125.984C144.679 125.755 144.468 125.595 144.186 125.504C143.994 125.435 143.786 125.395 143.562 125.384C143.343 125.373 143.204 125.368 143.146 125.368H140.89V128.176ZM35.464 154V146.448H32.4V145.36H39.704V146.448H36.64V154H35.464ZM44.8854 154.24C44.0427 154.24 43.312 154.053 42.6934 153.68C42.08 153.307 41.6027 152.781 41.2614 152.104C40.92 151.427 40.7494 150.632 40.7494 149.72C40.7494 148.776 40.9174 147.96 41.2534 147.272C41.5894 146.584 42.0614 146.053 42.6694 145.68C43.2827 145.307 44.0054 145.12 44.8374 145.12C45.6907 145.12 46.4187 145.317 47.0214 145.712C47.624 146.101 48.08 146.661 48.3894 147.392C48.6987 148.123 48.84 148.995 48.8134 150.008H47.6134V149.592C47.592 148.472 47.3494 147.627 46.8854 147.056C46.4267 146.485 45.7547 146.2 44.8694 146.2C43.9414 146.2 43.2294 146.501 42.7334 147.104C42.2427 147.707 41.9974 148.565 41.9974 149.68C41.9974 150.768 42.2427 151.613 42.7334 152.216C43.2294 152.813 43.9307 153.112 44.8374 153.112C45.456 153.112 45.9947 152.971 46.4534 152.688C46.9174 152.4 47.2827 151.987 47.5494 151.448L48.6454 151.872C48.304 152.624 47.8 153.208 47.1334 153.624C46.472 154.035 45.7227 154.24 44.8854 154.24ZM41.5814 150.008V149.024H48.1814V150.008H41.5814ZM50.5808 154V145.36H57.4528V154H56.2768V146.488H51.7568V154H50.5808ZM63.3541 154.24C62.5115 154.24 61.7808 154.053 61.1621 153.68C60.5488 153.307 60.0715 152.781 59.7301 152.104C59.3888 151.427 59.2181 150.632 59.2181 149.72C59.2181 148.776 59.3861 147.96 59.7221 147.272C60.0581 146.584 60.5301 146.053 61.1381 145.68C61.7515 145.307 62.4741 145.12 63.3061 145.12C64.1595 145.12 64.8875 145.317 65.4901 145.712C66.0928 146.101 66.5488 146.661 66.8581 147.392C67.1675 148.123 67.3088 148.995 67.2821 150.008H66.0821V149.592C66.0608 148.472 65.8181 147.627 65.3541 147.056C64.8955 146.485 64.2235 146.2 63.3381 146.2C62.4101 146.2 61.6981 146.501 61.2021 147.104C60.7115 147.707 60.4661 148.565 60.4661 149.68C60.4661 150.768 60.7115 151.613 61.2021 152.216C61.6981 152.813 62.3995 153.112 63.3061 153.112C63.9248 153.112 64.4635 152.971 64.9221 152.688C65.3861 152.4 65.7515 151.987 66.0181 151.448L67.1141 151.872C66.7728 152.624 66.2688 153.208 65.6021 153.624C64.9408 154.035 64.1915 154.24 63.3541 154.24ZM60.0501 150.008V149.024H66.6501V150.008H60.0501ZM72.9375 154.24C72.1428 154.24 71.4708 154.04 70.9215 153.64C70.3722 153.235 69.9562 152.688 69.6735 152C69.3908 151.307 69.2495 150.531 69.2495 149.672C69.2495 148.797 69.3908 148.019 69.6735 147.336C69.9615 146.648 70.3828 146.107 70.9375 145.712C71.4922 145.317 72.1748 145.12 72.9855 145.12C73.7748 145.12 74.4522 145.32 75.0175 145.72C75.5828 146.12 76.0148 146.664 76.3135 147.352C76.6175 148.04 76.7695 148.813 76.7695 149.672C76.7695 150.536 76.6175 151.312 76.3135 152C76.0095 152.688 75.5722 153.235 75.0015 153.64C74.4308 154.04 73.7428 154.24 72.9375 154.24ZM69.0495 157.84V145.36H70.1055V151.864H70.2335V157.84H69.0495ZM72.8175 153.144C73.4202 153.144 73.9215 152.992 74.3215 152.688C74.7215 152.384 75.0202 151.971 75.2175 151.448C75.4202 150.92 75.5215 150.328 75.5215 149.672C75.5215 149.021 75.4228 148.435 75.2255 147.912C75.0282 147.389 74.7268 146.976 74.3215 146.672C73.9215 146.368 73.4122 146.216 72.7935 146.216C72.1908 146.216 71.6895 146.363 71.2895 146.656C70.8948 146.949 70.5988 147.357 70.4015 147.88C70.2042 148.397 70.1055 148.995 70.1055 149.672C70.1055 150.339 70.2042 150.936 70.4015 151.464C70.5988 151.987 70.8975 152.397 71.2975 152.696C71.6975 152.995 72.2042 153.144 72.8175 153.144ZM78.5343 154L78.5183 145.36H79.7023V148.616H81.7263C81.9769 148.616 82.2223 148.621 82.4623 148.632C82.7076 148.643 82.9236 148.664 83.1103 148.696C83.5369 148.776 83.9156 148.917 84.2463 149.12C84.5823 149.323 84.8436 149.603 85.0303 149.96C85.2223 150.317 85.3183 150.765 85.3183 151.304C85.3183 152.045 85.1263 152.629 84.7423 153.056C84.3636 153.483 83.8836 153.76 83.3023 153.888C83.0836 153.936 82.8463 153.968 82.5903 153.984C82.3343 153.995 82.0809 154 81.8303 154H78.5343ZM79.7023 152.992H81.7823C81.9636 152.992 82.1663 152.987 82.3903 152.976C82.6143 152.965 82.8116 152.936 82.9823 152.888C83.2649 152.808 83.5209 152.648 83.7503 152.408C83.9849 152.163 84.1023 151.795 84.1023 151.304C84.1023 150.819 83.9903 150.453 83.7663 150.208C83.5423 149.957 83.2436 149.792 82.8703 149.712C82.7049 149.675 82.5263 149.651 82.3343 149.64C82.1423 149.629 81.9583 149.624 81.7823 149.624H79.7023V152.992ZM93.8602 154.24C92.9909 154.24 92.2549 154.045 91.6523 153.656C91.0496 153.267 90.5909 152.731 90.2763 152.048C89.9669 151.36 89.8069 150.571 89.7963 149.68C89.8069 148.773 89.9723 147.979 90.2923 147.296C90.6123 146.608 91.0736 146.075 91.6763 145.696C92.2789 145.312 93.0096 145.12 93.8683 145.12C94.7429 145.12 95.5029 145.333 96.1483 145.76C96.7989 146.187 97.2443 146.771 97.4843 147.512L96.3323 147.88C96.1296 147.363 95.8069 146.963 95.3643 146.68C94.9269 146.392 94.4256 146.248 93.8602 146.248C93.2256 146.248 92.7003 146.395 92.2843 146.688C91.8683 146.976 91.5589 147.379 91.3563 147.896C91.1536 148.413 91.0496 149.008 91.0443 149.68C91.0549 150.715 91.2949 151.547 91.7643 152.176C92.2336 152.8 92.9323 153.112 93.8602 153.112C94.4469 153.112 94.9456 152.979 95.3563 152.712C95.7723 152.44 96.0869 152.045 96.3003 151.528L97.4843 151.88C97.1643 152.648 96.6949 153.235 96.0763 153.64C95.4576 154.04 94.7189 154.24 93.8602 154.24ZM102.331 154V145.36H103.507V149.112H108.379V145.36H109.555V154H108.379V150.24H103.507V154H102.331ZM114.264 154.24C113.613 154.24 113.067 154.123 112.624 153.888C112.187 153.653 111.859 153.341 111.64 152.952C111.421 152.563 111.312 152.139 111.312 151.68C111.312 151.211 111.405 150.811 111.592 150.48C111.784 150.144 112.043 149.869 112.368 149.656C112.699 149.443 113.08 149.28 113.512 149.168C113.949 149.061 114.432 148.968 114.96 148.888C115.493 148.803 116.013 148.731 116.52 148.672C117.032 148.608 117.48 148.547 117.864 148.488L117.448 148.744C117.464 147.891 117.299 147.259 116.952 146.848C116.605 146.437 116.003 146.232 115.144 146.232C114.552 146.232 114.051 146.365 113.64 146.632C113.235 146.899 112.949 147.32 112.784 147.896L111.64 147.56C111.837 146.787 112.235 146.187 112.832 145.76C113.429 145.333 114.205 145.12 115.16 145.12C115.949 145.12 116.619 145.269 117.168 145.568C117.723 145.861 118.115 146.288 118.344 146.848C118.451 147.099 118.52 147.379 118.552 147.688C118.584 147.997 118.6 148.312 118.6 148.632V154H117.552V151.832L117.856 151.96C117.563 152.701 117.107 153.267 116.488 153.656C115.869 154.045 115.128 154.24 114.264 154.24ZM114.4 153.224C114.949 153.224 115.429 153.125 115.84 152.928C116.251 152.731 116.581 152.461 116.832 152.12C117.083 151.773 117.245 151.384 117.32 150.952C117.384 150.675 117.419 150.371 117.424 150.04C117.429 149.704 117.432 149.453 117.432 149.288L117.88 149.52C117.48 149.573 117.045 149.627 116.576 149.68C116.112 149.733 115.653 149.795 115.2 149.864C114.752 149.933 114.347 150.016 113.984 150.112C113.739 150.181 113.501 150.28 113.272 150.408C113.043 150.531 112.853 150.696 112.704 150.904C112.56 151.112 112.488 151.371 112.488 151.68C112.488 151.931 112.549 152.173 112.672 152.408C112.8 152.643 113.003 152.837 113.28 152.992C113.563 153.147 113.936 153.224 114.4 153.224ZM120.675 154V145.36H121.723L125.091 152.432L128.467 145.36H129.507V154H128.371V147.872L125.467 154H124.723L121.819 147.872V154H120.675ZM138.609 145.36V154H137.465V147.272L132.729 154H131.737V145.36H132.881V152.032L137.625 145.36H138.609Z" fill="#141414"/>
</svg>
