<svg width="185" height="228" viewBox="0 0 185 228" fill="none" xmlns="http://www.w3.org/2000/svg">
<rect width="185" height="228" rx="92.5" fill="#FFFCF2"/>
<path d="M44.22 78.62C46.06 78.62 47.72 79.06 49.2 79.94C50.68 80.82 51.8533 82.02 52.72 83.54C53.6 85.06 54.04 86.7867 54.04 88.72V98.3C54.04 100.313 53.6067 102.093 52.74 103.64C51.8733 105.187 50.6733 106.4 49.14 107.28C47.62 108.16 45.8733 108.6 43.9 108.6C42.3267 108.6 40.8533 108.273 39.48 107.62C38.12 106.967 36.9667 106.04 36.02 104.84L38.68 102.48C39.2667 103.307 40.02 103.973 40.94 104.48C41.86 104.973 42.8467 105.22 43.9 105.22C45.18 105.22 46.3067 104.913 47.28 104.3C48.2667 103.687 49.0333 102.887 49.58 101.9C50.14 100.913 50.42 99.8467 50.42 98.7V92.92L51.2 93.8C50.3733 95 49.3133 95.96 48.02 96.68C46.7267 97.4 45.32 97.76 43.8 97.76C42.0133 97.76 40.4133 97.34 39 96.5C37.5867 95.66 36.4667 94.5267 35.64 93.1C34.8133 91.66 34.4 90.0467 34.4 88.26C34.4 86.4733 34.8467 84.8533 35.74 83.4C36.6333 81.9333 37.82 80.7733 39.3 79.92C40.7933 79.0533 42.4333 78.62 44.22 78.62ZM44.22 82.06C43.0733 82.06 42.0267 82.34 41.08 82.9C40.1467 83.4467 39.4 84.1933 38.84 85.14C38.28 86.0733 38 87.1133 38 88.26C38 89.4067 38.2733 90.4533 38.82 91.4C39.38 92.3333 40.1267 93.08 41.06 93.64C42.0067 94.2 43.0533 94.48 44.2 94.48C45.3467 94.48 46.3933 94.2 47.34 93.64C48.2867 93.08 49.0333 92.3333 49.58 91.4C50.14 90.4533 50.42 89.4067 50.42 88.26C50.42 87.1267 50.14 86.0933 49.58 85.16C49.0333 84.2133 48.2867 83.46 47.34 82.9C46.4067 82.34 45.3667 82.06 44.22 82.06ZM69.3638 108.6C67.4971 108.6 65.8304 108.18 64.3638 107.34C62.9104 106.487 61.7571 105.333 60.9038 103.88C60.0638 102.413 59.6438 100.747 59.6438 98.88V88.32C59.6438 86.4533 60.0638 84.7867 60.9038 83.32C61.7571 81.8533 62.9104 80.7 64.3638 79.86C65.8304 79.02 67.4971 78.6 69.3638 78.6C71.2304 78.6 72.8971 79.02 74.3638 79.86C75.8304 80.7 76.9838 81.8533 77.8238 83.32C78.6638 84.7867 79.0838 86.4533 79.0838 88.32V98.88C79.0838 100.747 78.6638 102.413 77.8238 103.88C76.9838 105.333 75.8304 106.487 74.3638 107.34C72.8971 108.18 71.2304 108.6 69.3638 108.6ZM69.3638 105.18C70.4971 105.18 71.5238 104.907 72.4438 104.36C73.3638 103.813 74.0971 103.08 74.6438 102.16C75.1904 101.227 75.4638 100.2 75.4638 99.08V88.1C75.4638 86.9667 75.1904 85.94 74.6438 85.02C74.0971 84.1 73.3638 83.3667 72.4438 82.82C71.5238 82.2733 70.4971 82 69.3638 82C68.2438 82 67.2171 82.2733 66.2838 82.82C65.3638 83.3667 64.6304 84.1 64.0838 85.02C63.5371 85.94 63.2638 86.9667 63.2638 88.1V99.08C63.2638 100.2 63.5371 101.227 64.0838 102.16C64.6304 103.08 65.3638 103.813 66.2838 104.36C67.2171 104.907 68.2438 105.18 69.3638 105.18ZM87.8828 108L85.4828 105.6L111.923 79.2L114.323 81.6L87.8828 108ZM108.323 108.6C107.003 108.6 105.796 108.28 104.703 107.64C103.623 106.987 102.756 106.12 102.103 105.04C101.449 103.947 101.123 102.733 101.123 101.4C101.123 100.093 101.456 98.8933 102.123 97.8C102.789 96.7067 103.669 95.8333 104.763 95.18C105.856 94.5267 107.043 94.2 108.323 94.2C109.643 94.2 110.849 94.5267 111.943 95.18C113.036 95.82 113.903 96.6867 114.543 97.78C115.196 98.86 115.523 100.067 115.523 101.4C115.523 102.733 115.196 103.947 114.543 105.04C113.903 106.12 113.036 106.987 111.943 107.64C110.849 108.28 109.643 108.6 108.323 108.6ZM108.323 105.46C109.056 105.46 109.729 105.273 110.343 104.9C110.969 104.527 111.463 104.033 111.823 103.42C112.196 102.807 112.383 102.133 112.383 101.4C112.383 100.667 112.196 99.9933 111.823 99.38C111.463 98.7533 110.969 98.26 110.343 97.9C109.729 97.5267 109.056 97.34 108.323 97.34C107.589 97.34 106.916 97.5267 106.303 97.9C105.689 98.26 105.196 98.7533 104.823 99.38C104.449 99.9933 104.263 100.667 104.263 101.4C104.263 102.133 104.449 102.807 104.823 103.42C105.196 104.033 105.689 104.527 106.303 104.9C106.916 105.273 107.589 105.46 108.323 105.46ZM91.4828 93C90.1628 93 88.9561 92.68 87.8628 92.04C86.7695 91.3867 85.8961 90.52 85.2428 89.44C84.6028 88.3467 84.2828 87.1333 84.2828 85.8C84.2828 84.4933 84.6161 83.2933 85.2828 82.2C85.9495 81.1067 86.8295 80.2333 87.9228 79.58C89.0161 78.9267 90.2028 78.6 91.4828 78.6C92.8028 78.6 94.0028 78.9267 95.0828 79.58C96.1761 80.22 97.0495 81.0867 97.7028 82.18C98.3561 83.26 98.6828 84.4667 98.6828 85.8C98.6828 87.1333 98.3561 88.3467 97.7028 89.44C97.0495 90.52 96.1761 91.3867 95.0828 92.04C94.0028 92.68 92.8028 93 91.4828 93ZM91.4828 89.86C92.2161 89.86 92.8895 89.6733 93.5028 89.3C94.1295 88.9267 94.6228 88.4333 94.9828 87.82C95.3561 87.2067 95.5428 86.5333 95.5428 85.8C95.5428 85.0667 95.3561 84.3933 94.9828 83.78C94.6228 83.1533 94.1295 82.66 93.5028 82.3C92.8895 81.9267 92.2161 81.74 91.4828 81.74C90.7495 81.74 90.0761 81.9267 89.4628 82.3C88.8495 82.66 88.3561 83.1533 87.9828 83.78C87.6095 84.3933 87.4228 85.0667 87.4228 85.8C87.4228 86.5333 87.6095 87.2067 87.9828 87.82C88.3561 88.4333 88.8495 88.9267 89.4628 89.3C90.0761 89.6733 90.7495 89.86 91.4828 89.86Z" fill="#141414"/>
<path d="M32.48 134.92V131.992C32.9707 131.992 33.3227 131.835 33.536 131.52C33.7493 131.2 33.9227 130.691 34.056 129.992C34.1467 129.539 34.2213 129.051 34.28 128.528C34.3387 128.005 34.3893 127.408 34.432 126.736C34.4747 126.059 34.5147 125.267 34.552 124.36H40.264V131.992H41.096V134.92H39.96V133H33.608V134.92H32.48ZM34.472 131.992H39.096V125.368H35.64C35.624 125.773 35.6 126.203 35.568 126.656C35.5413 127.109 35.5067 127.563 35.464 128.016C35.4267 128.469 35.3813 128.896 35.328 129.296C35.28 129.691 35.2213 130.037 35.152 130.336C35.072 130.72 34.984 131.048 34.888 131.32C34.7973 131.592 34.6587 131.816 34.472 131.992ZM49.5621 124.36V133H48.4181V126.272L43.6821 133H42.6901V124.36H43.8341V131.032L48.5781 124.36H49.5621ZM54.9195 133.24C54.0502 133.24 53.2902 133.051 52.6395 132.672C51.9942 132.288 51.4848 131.757 51.1115 131.08L52.0555 130.48C52.3702 131.013 52.7622 131.419 53.2315 131.696C53.7008 131.973 54.2395 132.112 54.8475 132.112C55.4822 132.112 55.9915 131.965 56.3755 131.672C56.7595 131.379 56.9515 130.976 56.9515 130.464C56.9515 130.112 56.8688 129.832 56.7035 129.624C56.5435 129.416 56.2982 129.267 55.9675 129.176C55.6422 129.085 55.2342 129.04 54.7435 129.04H53.7195V128.032H54.7275C55.3248 128.032 55.8048 127.925 56.1675 127.712C56.5355 127.493 56.7195 127.152 56.7195 126.688C56.7195 126.197 56.5355 125.835 56.1675 125.6C55.8048 125.36 55.3702 125.24 54.8635 125.24C54.3515 125.24 53.8662 125.347 53.4075 125.56C52.9542 125.768 52.5728 126.037 52.2635 126.368L51.5115 125.576C51.9435 125.101 52.4475 124.741 53.0235 124.496C53.6048 124.245 54.2475 124.12 54.9515 124.12C55.5062 124.12 56.0075 124.219 56.4555 124.416C56.9088 124.608 57.2662 124.891 57.5275 125.264C57.7942 125.637 57.9275 126.085 57.9275 126.608C57.9275 127.099 57.8075 127.523 57.5675 127.88C57.3328 128.237 56.9995 128.533 56.5675 128.768L56.5035 128.328C56.8768 128.397 57.1862 128.547 57.4315 128.776C57.6768 129.005 57.8582 129.28 57.9755 129.6C58.0928 129.92 58.1515 130.245 58.1515 130.576C58.1515 131.125 58.0075 131.6 57.7195 132C57.4368 132.395 57.0502 132.701 56.5595 132.92C56.0742 133.133 55.5275 133.24 54.9195 133.24ZM62.3889 133.24C61.7382 133.24 61.1915 133.123 60.7489 132.888C60.3115 132.653 59.9835 132.341 59.7649 131.952C59.5462 131.563 59.4369 131.139 59.4369 130.68C59.4369 130.211 59.5302 129.811 59.7169 129.48C59.9089 129.144 60.1675 128.869 60.4929 128.656C60.8235 128.443 61.2049 128.28 61.6369 128.168C62.0742 128.061 62.5569 127.968 63.0849 127.888C63.6182 127.803 64.1382 127.731 64.6449 127.672C65.1569 127.608 65.6049 127.547 65.9889 127.488L65.5729 127.744C65.5889 126.891 65.4235 126.259 65.0769 125.848C64.7302 125.437 64.1275 125.232 63.2689 125.232C62.6769 125.232 62.1755 125.365 61.7649 125.632C61.3595 125.899 61.0742 126.32 60.9089 126.896L59.7649 126.56C59.9622 125.787 60.3595 125.187 60.9569 124.76C61.5542 124.333 62.3302 124.12 63.2849 124.12C64.0742 124.12 64.7435 124.269 65.2929 124.568C65.8475 124.861 66.2395 125.288 66.4689 125.848C66.5755 126.099 66.6449 126.379 66.6769 126.688C66.7089 126.997 66.7249 127.312 66.7249 127.632V133H65.6769V130.832L65.9809 130.96C65.6875 131.701 65.2315 132.267 64.6129 132.656C63.9942 133.045 63.2529 133.24 62.3889 133.24ZM62.5249 132.224C63.0742 132.224 63.5542 132.125 63.9649 131.928C64.3755 131.731 64.7062 131.461 64.9569 131.12C65.2075 130.773 65.3702 130.384 65.4449 129.952C65.5089 129.675 65.5435 129.371 65.5489 129.04C65.5542 128.704 65.5569 128.453 65.5569 128.288L66.0049 128.52C65.6049 128.573 65.1702 128.627 64.7009 128.68C64.2369 128.733 63.7782 128.795 63.3249 128.864C62.8769 128.933 62.4715 129.016 62.1089 129.112C61.8635 129.181 61.6262 129.28 61.3969 129.408C61.1675 129.531 60.9782 129.696 60.8289 129.904C60.6849 130.112 60.6129 130.371 60.6129 130.68C60.6129 130.931 60.6742 131.173 60.7969 131.408C60.9249 131.643 61.1275 131.837 61.4049 131.992C61.6875 132.147 62.0609 132.224 62.5249 132.224ZM72.3915 123.336C72.0128 123.336 71.6662 123.243 71.3515 123.056C71.0368 122.869 70.7862 122.621 70.5995 122.312C70.4182 121.997 70.3275 121.651 70.3275 121.272H71.3035C71.3035 121.571 71.4102 121.827 71.6235 122.04C71.8368 122.253 72.0928 122.36 72.3915 122.36C72.6955 122.36 72.9515 122.253 73.1595 122.04C73.3728 121.827 73.4795 121.571 73.4795 121.272H74.4555C74.4555 121.651 74.3622 121.997 74.1755 122.312C73.9942 122.621 73.7462 122.869 73.4315 123.056C73.1168 123.243 72.7702 123.336 72.3915 123.336ZM75.6715 124.36V133H74.5275V126.272L69.7915 133H68.7995V124.36H69.9435V131.032L74.6875 124.36H75.6715ZM77.9089 133V124.36H79.0849V128.112H83.9569V124.36H85.1329V133H83.9569V129.24H79.0849V133H77.9089ZM91.026 133.24C90.1833 133.24 89.4527 133.053 88.834 132.68C88.2207 132.307 87.7433 131.781 87.402 131.104C87.0607 130.427 86.89 129.632 86.89 128.72C86.89 127.776 87.058 126.96 87.394 126.272C87.73 125.584 88.202 125.053 88.81 124.68C89.4233 124.307 90.146 124.12 90.978 124.12C91.8313 124.12 92.5593 124.317 93.162 124.712C93.7647 125.101 94.2207 125.661 94.53 126.392C94.8393 127.123 94.9807 127.995 94.954 129.008H93.754V128.592C93.7327 127.472 93.49 126.627 93.026 126.056C92.5673 125.485 91.8953 125.2 91.01 125.2C90.082 125.2 89.37 125.501 88.874 126.104C88.3833 126.707 88.138 127.565 88.138 128.68C88.138 129.768 88.3833 130.613 88.874 131.216C89.37 131.813 90.0713 132.112 90.978 132.112C91.5967 132.112 92.1353 131.971 92.594 131.688C93.058 131.4 93.4233 130.987 93.69 130.448L94.786 130.872C94.4447 131.624 93.9407 132.208 93.274 132.624C92.6127 133.035 91.8633 133.24 91.026 133.24ZM87.722 129.008V128.024H94.322V129.008H87.722ZM100.609 133.24C99.8147 133.24 99.1427 133.04 98.5934 132.64C98.044 132.235 97.628 131.688 97.3454 131C97.0627 130.307 96.9214 129.531 96.9214 128.672C96.9214 127.797 97.0627 127.019 97.3454 126.336C97.6334 125.648 98.0547 125.107 98.6094 124.712C99.164 124.317 99.8467 124.12 100.657 124.12C101.447 124.12 102.124 124.32 102.689 124.72C103.255 125.12 103.687 125.664 103.985 126.352C104.289 127.04 104.441 127.813 104.441 128.672C104.441 129.536 104.289 130.312 103.985 131C103.681 131.688 103.244 132.235 102.673 132.64C102.103 133.04 101.415 133.24 100.609 133.24ZM96.7214 136.84V124.36H97.7774V130.864H97.9054V136.84H96.7214ZM100.489 132.144C101.092 132.144 101.593 131.992 101.993 131.688C102.393 131.384 102.692 130.971 102.889 130.448C103.092 129.92 103.193 129.328 103.193 128.672C103.193 128.021 103.095 127.435 102.897 126.912C102.7 126.389 102.399 125.976 101.993 125.672C101.593 125.368 101.084 125.216 100.465 125.216C99.8627 125.216 99.3614 125.363 98.9614 125.656C98.5667 125.949 98.2707 126.357 98.0734 126.88C97.876 127.397 97.7774 127.995 97.7774 128.672C97.7774 129.339 97.876 129.936 98.0734 130.464C98.2707 130.987 98.5694 131.397 98.9694 131.696C99.3694 131.995 99.876 132.144 100.489 132.144ZM109.806 133.24C108.947 133.24 108.214 133.045 107.606 132.656C106.998 132.267 106.531 131.728 106.206 131.04C105.881 130.352 105.718 129.563 105.718 128.672C105.718 127.765 105.883 126.971 106.214 126.288C106.545 125.605 107.014 125.075 107.622 124.696C108.235 124.312 108.963 124.12 109.806 124.12C110.67 124.12 111.406 124.315 112.014 124.704C112.627 125.088 113.094 125.624 113.414 126.312C113.739 126.995 113.902 127.781 113.902 128.672C113.902 129.579 113.739 130.376 113.414 131.064C113.089 131.747 112.619 132.28 112.006 132.664C111.393 133.048 110.659 133.24 109.806 133.24ZM109.806 132.112C110.766 132.112 111.481 131.795 111.95 131.16C112.419 130.52 112.654 129.691 112.654 128.672C112.654 127.627 112.417 126.795 111.942 126.176C111.473 125.557 110.761 125.248 109.806 125.248C109.161 125.248 108.627 125.395 108.206 125.688C107.79 125.976 107.478 126.379 107.27 126.896C107.067 127.408 106.966 128 106.966 128.672C106.966 129.712 107.206 130.547 107.686 131.176C108.166 131.8 108.873 132.112 109.806 132.112ZM115.659 133V124.36H119.219C119.4 124.36 119.619 124.371 119.875 124.392C120.136 124.413 120.379 124.453 120.603 124.512C121.088 124.64 121.478 124.901 121.771 125.296C122.07 125.691 122.219 126.165 122.219 126.72C122.219 127.029 122.171 127.307 122.075 127.552C121.984 127.792 121.854 128 121.683 128.176C121.603 128.267 121.515 128.347 121.419 128.416C121.323 128.48 121.23 128.533 121.139 128.576C121.31 128.608 121.494 128.683 121.691 128.8C122 128.981 122.235 129.227 122.395 129.536C122.555 129.84 122.635 130.211 122.635 130.648C122.635 131.24 122.494 131.723 122.211 132.096C121.928 132.469 121.55 132.725 121.075 132.864C120.862 132.923 120.63 132.96 120.379 132.976C120.134 132.992 119.902 133 119.683 133H115.659ZM116.843 132H119.627C119.739 132 119.88 131.992 120.051 131.976C120.222 131.955 120.374 131.928 120.507 131.896C120.822 131.816 121.051 131.656 121.195 131.416C121.344 131.171 121.419 130.904 121.419 130.616C121.419 130.237 121.307 129.928 121.083 129.688C120.864 129.443 120.571 129.293 120.203 129.24C120.08 129.213 119.952 129.197 119.819 129.192C119.686 129.187 119.566 129.184 119.459 129.184H116.843V132ZM116.843 128.176H119.259C119.398 128.176 119.552 128.168 119.723 128.152C119.899 128.131 120.051 128.096 120.179 128.048C120.456 127.952 120.659 127.787 120.787 127.552C120.92 127.317 120.987 127.061 120.987 126.784C120.987 126.48 120.915 126.213 120.771 125.984C120.632 125.755 120.422 125.595 120.139 125.504C119.947 125.435 119.739 125.395 119.515 125.384C119.296 125.373 119.158 125.368 119.099 125.368H116.843V128.176ZM35.464 154V146.448H32.4V145.36H39.704V146.448H36.64V154H35.464ZM44.8854 154.24C44.0427 154.24 43.312 154.053 42.6934 153.68C42.08 153.307 41.6027 152.781 41.2614 152.104C40.92 151.427 40.7494 150.632 40.7494 149.72C40.7494 148.776 40.9174 147.96 41.2534 147.272C41.5894 146.584 42.0614 146.053 42.6694 145.68C43.2827 145.307 44.0054 145.12 44.8374 145.12C45.6907 145.12 46.4187 145.317 47.0214 145.712C47.624 146.101 48.08 146.661 48.3894 147.392C48.6987 148.123 48.84 148.995 48.8134 150.008H47.6134V149.592C47.592 148.472 47.3494 147.627 46.8854 147.056C46.4267 146.485 45.7547 146.2 44.8694 146.2C43.9414 146.2 43.2294 146.501 42.7334 147.104C42.2427 147.707 41.9974 148.565 41.9974 149.68C41.9974 150.768 42.2427 151.613 42.7334 152.216C43.2294 152.813 43.9307 153.112 44.8374 153.112C45.456 153.112 45.9947 152.971 46.4534 152.688C46.9174 152.4 47.2827 151.987 47.5494 151.448L48.6454 151.872C48.304 152.624 47.8 153.208 47.1334 153.624C46.472 154.035 45.7227 154.24 44.8854 154.24ZM41.5814 150.008V149.024H48.1814V150.008H41.5814ZM50.5808 154V145.36H57.4528V154H56.2768V146.488H51.7568V154H50.5808ZM63.3541 154.24C62.5115 154.24 61.7808 154.053 61.1621 153.68C60.5488 153.307 60.0715 152.781 59.7301 152.104C59.3888 151.427 59.2181 150.632 59.2181 149.72C59.2181 148.776 59.3861 147.96 59.7221 147.272C60.0581 146.584 60.5301 146.053 61.1381 145.68C61.7515 145.307 62.4741 145.12 63.3061 145.12C64.1595 145.12 64.8875 145.317 65.4901 145.712C66.0928 146.101 66.5488 146.661 66.8581 147.392C67.1675 148.123 67.3088 148.995 67.2821 150.008H66.0821V149.592C66.0608 148.472 65.8181 147.627 65.3541 147.056C64.8955 146.485 64.2235 146.2 63.3381 146.2C62.4101 146.2 61.6981 146.501 61.2021 147.104C60.7115 147.707 60.4661 148.565 60.4661 149.68C60.4661 150.768 60.7115 151.613 61.2021 152.216C61.6981 152.813 62.3995 153.112 63.3061 153.112C63.9248 153.112 64.4635 152.971 64.9221 152.688C65.3861 152.4 65.7515 151.987 66.0181 151.448L67.1141 151.872C66.7728 152.624 66.2688 153.208 65.6021 153.624C64.9408 154.035 64.1915 154.24 63.3541 154.24ZM60.0501 150.008V149.024H66.6501V150.008H60.0501ZM72.9375 154.24C72.1428 154.24 71.4708 154.04 70.9215 153.64C70.3722 153.235 69.9562 152.688 69.6735 152C69.3908 151.307 69.2495 150.531 69.2495 149.672C69.2495 148.797 69.3908 148.019 69.6735 147.336C69.9615 146.648 70.3828 146.107 70.9375 145.712C71.4922 145.317 72.1748 145.12 72.9855 145.12C73.7748 145.12 74.4522 145.32 75.0175 145.72C75.5828 146.12 76.0148 146.664 76.3135 147.352C76.6175 148.04 76.7695 148.813 76.7695 149.672C76.7695 150.536 76.6175 151.312 76.3135 152C76.0095 152.688 75.5722 153.235 75.0015 153.64C74.4308 154.04 73.7428 154.24 72.9375 154.24ZM69.0495 157.84V145.36H70.1055V151.864H70.2335V157.84H69.0495ZM72.8175 153.144C73.4202 153.144 73.9215 152.992 74.3215 152.688C74.7215 152.384 75.0202 151.971 75.2175 151.448C75.4202 150.92 75.5215 150.328 75.5215 149.672C75.5215 149.021 75.4228 148.435 75.2255 147.912C75.0282 147.389 74.7268 146.976 74.3215 146.672C73.9215 146.368 73.4122 146.216 72.7935 146.216C72.1908 146.216 71.6895 146.363 71.2895 146.656C70.8948 146.949 70.5988 147.357 70.4015 147.88C70.2042 148.397 70.1055 148.995 70.1055 149.672C70.1055 150.339 70.2042 150.936 70.4015 151.464C70.5988 151.987 70.8975 152.397 71.2975 152.696C71.6975 152.995 72.2042 153.144 72.8175 153.144ZM78.5343 154L78.5183 145.36H79.7023V148.616H81.7263C81.9769 148.616 82.2223 148.621 82.4623 148.632C82.7076 148.643 82.9236 148.664 83.1103 148.696C83.5369 148.776 83.9156 148.917 84.2463 149.12C84.5823 149.323 84.8436 149.603 85.0303 149.96C85.2223 150.317 85.3183 150.765 85.3183 151.304C85.3183 152.045 85.1263 152.629 84.7423 153.056C84.3636 153.483 83.8836 153.76 83.3023 153.888C83.0836 153.936 82.8463 153.968 82.5903 153.984C82.3343 153.995 82.0809 154 81.8303 154H78.5343ZM79.7023 152.992H81.7823C81.9636 152.992 82.1663 152.987 82.3903 152.976C82.6143 152.965 82.8116 152.936 82.9823 152.888C83.2649 152.808 83.5209 152.648 83.7503 152.408C83.9849 152.163 84.1023 151.795 84.1023 151.304C84.1023 150.819 83.9903 150.453 83.7663 150.208C83.5423 149.957 83.2436 149.792 82.8703 149.712C82.7049 149.675 82.5263 149.651 82.3343 149.64C82.1423 149.629 81.9583 149.624 81.7823 149.624H79.7023V152.992ZM93.8602 154.24C92.9909 154.24 92.2549 154.045 91.6523 153.656C91.0496 153.267 90.5909 152.731 90.2763 152.048C89.9669 151.36 89.8069 150.571 89.7963 149.68C89.8069 148.773 89.9723 147.979 90.2923 147.296C90.6123 146.608 91.0736 146.075 91.6763 145.696C92.2789 145.312 93.0096 145.12 93.8683 145.12C94.7429 145.12 95.5029 145.333 96.1483 145.76C96.7989 146.187 97.2443 146.771 97.4843 147.512L96.3323 147.88C96.1296 147.363 95.8069 146.963 95.3643 146.68C94.9269 146.392 94.4256 146.248 93.8602 146.248C93.2256 146.248 92.7003 146.395 92.2843 146.688C91.8683 146.976 91.5589 147.379 91.3563 147.896C91.1536 148.413 91.0496 149.008 91.0443 149.68C91.0549 150.715 91.2949 151.547 91.7643 152.176C92.2336 152.8 92.9323 153.112 93.8602 153.112C94.4469 153.112 94.9456 152.979 95.3563 152.712C95.7723 152.44 96.0869 152.045 96.3003 151.528L97.4843 151.88C97.1643 152.648 96.6949 153.235 96.0763 153.64C95.4576 154.04 94.7189 154.24 93.8602 154.24ZM102.331 154V145.36H103.507V149.112H108.379V145.36H109.555V154H108.379V150.24H103.507V154H102.331ZM114.264 154.24C113.613 154.24 113.067 154.123 112.624 153.888C112.187 153.653 111.859 153.341 111.64 152.952C111.421 152.563 111.312 152.139 111.312 151.68C111.312 151.211 111.405 150.811 111.592 150.48C111.784 150.144 112.043 149.869 112.368 149.656C112.699 149.443 113.08 149.28 113.512 149.168C113.949 149.061 114.432 148.968 114.96 148.888C115.493 148.803 116.013 148.731 116.52 148.672C117.032 148.608 117.48 148.547 117.864 148.488L117.448 148.744C117.464 147.891 117.299 147.259 116.952 146.848C116.605 146.437 116.003 146.232 115.144 146.232C114.552 146.232 114.051 146.365 113.64 146.632C113.235 146.899 112.949 147.32 112.784 147.896L111.64 147.56C111.837 146.787 112.235 146.187 112.832 145.76C113.429 145.333 114.205 145.12 115.16 145.12C115.949 145.12 116.619 145.269 117.168 145.568C117.723 145.861 118.115 146.288 118.344 146.848C118.451 147.099 118.52 147.379 118.552 147.688C118.584 147.997 118.6 148.312 118.6 148.632V154H117.552V151.832L117.856 151.96C117.563 152.701 117.107 153.267 116.488 153.656C115.869 154.045 115.128 154.24 114.264 154.24ZM114.4 153.224C114.949 153.224 115.429 153.125 115.84 152.928C116.251 152.731 116.581 152.461 116.832 152.12C117.083 151.773 117.245 151.384 117.32 150.952C117.384 150.675 117.419 150.371 117.424 150.04C117.429 149.704 117.432 149.453 117.432 149.288L117.88 149.52C117.48 149.573 117.045 149.627 116.576 149.68C116.112 149.733 115.653 149.795 115.2 149.864C114.752 149.933 114.347 150.016 113.984 150.112C113.739 150.181 113.501 150.28 113.272 150.408C113.043 150.531 112.853 150.696 112.704 150.904C112.56 151.112 112.488 151.371 112.488 151.68C112.488 151.931 112.549 152.173 112.672 152.408C112.8 152.643 113.003 152.837 113.28 152.992C113.563 153.147 113.936 153.224 114.4 153.224ZM120.675 154V145.36H121.723L125.091 152.432L128.467 145.36H129.507V154H128.371V147.872L125.467 154H124.723L121.819 147.872V154H120.675ZM138.609 145.36V154H137.465V147.272L132.729 154H131.737V145.36H132.881V152.032L137.625 145.36H138.609Z" fill="#141414"/>
</svg>
